<?xml version="1.0" encoding="UTF-8"?>
<!DOCTYPE svg PUBLIC "-//W3C//DTD SVG 1.1//EN" "http://www.w3.org/Graphics/SVG/1.1/DTD/svg11.dtd">
<!-- Creator: CorelDRAW -->
<svg xmlns="http://www.w3.org/2000/svg" xml:space="preserve" width="166.251mm" height="206.281mm" style="shape-rendering:geometricPrecision; text-rendering:geometricPrecision; image-rendering:optimizeQuality; fill-rule:evenodd; clip-rule:evenodd"
viewBox="0 0 165.097 204.849"
 xmlns:xlink="http://www.w3.org/1999/xlink">
 <defs>
  <style type="text/css">
   <![CDATA[
    .str0 {stroke:white;stroke-width:0.0756711}
    .str3 {stroke:#1F1A17;stroke-width:0.324432}
    .str2 {stroke:#1F1A17;stroke-width:5.18377;stroke-linecap:round;stroke-linejoin:round}
    .str1 {stroke:#1F1A17;stroke-width:5.18436;stroke-linecap:round;stroke-linejoin:round}
    .fil5 {fill:none}
    .fil3 {fill:white}
    .fil0 {fill:#00823B}
    .fil1 {fill:#CA2720}
    .fil4 {fill:#1F1A17;fill-rule:nonzero}
    .fil2 {fill:white;fill-rule:nonzero}
   ]]>
  </style>
 </defs>
 <g id="Capa_x0020_1">
  <metadata id="CorelCorpID_0Corel-Layer"/>
  <g id="_337135560">
   <g>
    <g>
     <path id="_337130256" class="fil0" d="M32.8649 0l51.6358 0 -0.440421 114.727c-53.5488,0 -51.1953,-40.1706 -51.1953,-55.5258l0 -59.2012z"/>
     <path id="_337127328" class="fil1" d="M135.696 0l-51.6358 0 -0.0016882 114.727c53.5488,0 51.6375,-40.1706 51.6375,-55.5258l0 -59.2012z"/>
    </g>
    <g>
     <g>
      <path id="_337130376" class="fil2" d="M126.59 8.81836l-1.63636 1.80896 -81.3517 0 0 -3.61791 81.3517 0 1.63636 1.80896zm-1.63636 1.80896l0 -3.61791 0.0845093 0.00238334 0.0834169 0.00695141 0.0822252 0.0115195 0.0809343 0.0158889 0.0794447 0.0202584 0.0779551 0.0243299 0.0762669 0.0284015 0.074678 0.032473 0.0726919 0.0361473 0.0709044 0.0400203 0.0687196 0.043496 0.0666342 0.047071 0.0644495 0.0504474 0.0620662 0.0537245 0.0595835 0.0568029 0.0571009 0.0598814 0.0543203 0.0628606 0.051639 0.0656412 0.0487592 0.0683224 0.0458793 0.0709044 0.0427015 0.0734863 0.0395237 0.0756711 0.0363459 0.0780544 0.0328702 0.0801398 0.0293945 0.0821259 0.0258195 0.0840127 0.0221452 0.0858996 0.0183716 0.0874885 0.0143993 0.0890773 0.0105264 0.0905669 0.00625627 0.0918579 0.00218473 0.0930496 -0.00218473 0.0930496 -0.00625627 0.0918579 -0.0105264 0.0905669 -0.0143993 0.0890773 -0.0183716 0.0874885 -0.0221452 0.0858996 -0.0258195 0.0840127 -0.0293945 0.0821259 -0.0328702 0.0801398 -0.0363459 0.0780544 -0.0395237 0.0756711 -0.0427015 0.0734863 -0.0458793 0.0709044 -0.0487592 0.0683224 -0.051639 0.0656412 -0.0543203 0.0627613 -0.0571009 0.0599807 -0.0595835 0.0568029 -0.0620662 0.0537245 -0.0644495 0.0504474 -0.0666342 0.047071 -0.0687196 0.043496 -0.0709044 0.0400203 -0.0726919 0.0361473 -0.074678 0.032473 -0.0762669 0.0284015 -0.0779551 0.0243299 -0.0794447 0.0202584 -0.0809343 0.0158889 -0.0822252 0.0115195 -0.0834169 0.00695141 -0.0845093 0.00238334zm-1.64272 44.7571l0.00635557 0 0 -46.5661 3.27272 0 0 46.5661 -3.27908 0zm0.00635557 0l3.27272 0 -0.00208542 0.0927517 -0.00635557 0.0914607 -0.0104271 0.0901697 -0.0143993 0.0887794 -0.0182723 0.0871905 -0.0220459 0.0855023 -0.0257202 0.0837148 -0.0292952 0.081828 -0.0327709 0.0798419 -0.0361473 0.0776572 -0.0394244 0.0754724 -0.0425029 0.0730891 -0.0456807 0.0706065 -0.0485606 0.0681238 -0.0514404 0.0653432 -0.0541217 0.0625627 -0.0569023 0.0596828 -0.0593849 0.0566043 -0.0617682 0.0535259 -0.0641516 0.0502488 -0.0664356 0.0468724 -0.068521 0.0433967 -0.0705072 0.0398216 -0.0724933 0.036048 -0.0743801 0.0322744 -0.075969 0.0283022 -0.0776572 0.0243299 -0.0791468 0.0200598 -0.0806364 0.0158889 -0.081828 0.0114202 -0.083119 0.00695141 -0.0842114 0.00238334 -0.0842114 -0.00238334 -0.083119 -0.00695141 -0.081828 -0.0114202 -0.0806364 -0.0158889 -0.0791468 -0.0200598 -0.0776572 -0.0243299 -0.075969 -0.0283022 -0.0743801 -0.0322744 -0.0724933 -0.036048 -0.0705072 -0.0398216 -0.068521 -0.0433967 -0.0664356 -0.0468724 -0.0641516 -0.0502488 -0.0617682 -0.0535259 -0.0593849 -0.0566043 -0.0568029 -0.0596828 -0.054221 -0.0625627 -0.0514404 -0.0653432 -0.0485606 -0.0681238 -0.0456807 -0.0706065 -0.0425029 -0.0730891 -0.0394244 -0.0754724 -0.0361473 -0.0776572 -0.0327709 -0.0798419 -0.0292952 -0.081828 -0.0257202 -0.0837148 -0.0220459 -0.0855023 -0.0182723 -0.0871905 -0.0143993 -0.0887794 -0.0104271 -0.0901697 -0.00635557 -0.0914607 -0.00208542 -0.0927517zm-37.3745 45.2001l0 -3.61791 0 0.00705072 3.46716 -0.0919572 3.23936 -0.262366 3.0186 -0.423043 2.80499 -0.581535 2.60499 -0.715995 2.40568 -0.848072 2.21373 -0.963366 2.04143 -1.07638 1.86357 -1.17955 1.71213 -1.26615 1.55503 -1.35731 1.41133 -1.42464 1.27499 -1.48969 1.15205 -1.55195 1.0299 -1.60478 0.915004 -1.65503 0.813315 -1.68155 0.712817 -1.71263 0.619172 -1.72693 0.532577 -1.7459 0.453331 -1.74113 0.37488 -1.73388 0.31619 -1.70985 0.245583 -1.69048 0.194739 -1.64729 0.144788 -1.60151 0.108243 -1.54639 0.0726919 -1.48154 0.0439925 -1.39991 0.0226417 -1.32295 0.00834169 -1.22931 -0.0051639 -1.12613 3.28543 0 -0.00754724 1.14023 -0.00834169 1.25751 -0.0226417 1.36546 -0.0439925 1.47062 -0.0726919 1.55205 -0.108243 1.6312 -0.157698 1.70061 -0.207649 1.7603 -0.271204 1.80349 -0.328901 1.85126 -0.41341 1.87509 -0.491862 1.89664 -0.584018 1.90141 -0.683324 1.91064 -0.78968 1.89634 -0.903286 1.87936 -1.0304 1.83875 -1.1582 1.8026 -1.29326 1.74977 -1.44182 1.6875 -1.59108 1.60836 -1.74749 1.51283 -1.90479 1.42166 -2.08165 1.30667 -2.24679 1.18939 -2.4318 1.06247 -2.61105 0.918579 -2.79764 0.7726 -2.99745 0.609738 -3.19834 0.451444 -3.40619 0.276467 -3.62109 0.0919572 0 0.00705072zm0 -3.61086l0 3.60381 -0.0842114 -0.00238334 -0.083119 -0.00695141 -0.081828 -0.0114202 -0.0806364 -0.0158889 -0.0791468 -0.0200598 -0.0776572 -0.0243299 -0.075969 -0.0283022 -0.0743801 -0.0322744 -0.0724933 -0.036048 -0.0705072 -0.0398216 -0.068521 -0.0433967 -0.0664356 -0.0468724 -0.0641516 -0.0502488 -0.0617682 -0.0535259 -0.0593849 -0.0566043 -0.0568029 -0.0596828 -0.054221 -0.0625627 -0.0514404 -0.0653432 -0.0485606 -0.0681238 -0.0456807 -0.0706065 -0.0425029 -0.0730891 -0.0394244 -0.0754724 -0.0361473 -0.0776572 -0.0327709 -0.0798419 -0.0292952 -0.081828 -0.0257202 -0.0837148 -0.0220459 -0.0855023 -0.0182723 -0.0871905 -0.0143993 -0.0887794 -0.0104271 -0.0901697 -0.00635557 -0.0914607 -0.00208542 -0.0927517 0.00208542 -0.0927517 0.00635557 -0.0914607 0.0104271 -0.0901697 0.0143993 -0.0887794 0.0182723 -0.0871905 0.0220459 -0.0855023 0.0257202 -0.0837148 0.0292952 -0.081828 0.0327709 -0.0798419 0.0361473 -0.0776572 0.0394244 -0.0754724 0.0425029 -0.0730891 0.0456807 -0.0706065 0.0485606 -0.0681238 0.0514404 -0.0653432 0.054221 -0.0625627 0.0568029 -0.0596828 0.0593849 -0.0566043 0.0617682 -0.0535259 0.0641516 -0.0502488 0.0664356 -0.0468724 0.068521 -0.0433967 0.0705072 -0.0398216 0.0724933 -0.036048 0.0743801 -0.0322744 0.075969 -0.0283022 0.0776572 -0.0243299 0.0791468 -0.0200598 0.0806364 -0.0158889 0.081828 -0.0114202 0.083119 -0.00695141 0.0842114 -0.00238334zm-43.9772 -41.5892l3.27272 0 0.00635557 0 -0.0050646 1.1727 0.00903683 1.27002 0.0245285 1.35086 0.0478654 1.43666 0.0787495 1.49912 0.111223 1.5592 0.164053 1.617 0.205563 1.65156 0.273985 1.69078 0.337342 1.71372 0.408445 1.72733 0.487294 1.7316 0.573988 1.73358 0.674585 1.71948 0.770514 1.69575 0.880247 1.66993 0.991569 1.63487 1.11679 1.59038 1.25006 1.53656 1.39098 1.48065 1.53308 1.41541 1.69595 1.34073 1.8601 1.26396 2.04481 1.16377 2.22445 1.07528 2.4183 0.956514 2.62634 0.84261 2.84193 0.704972 3.05922 0.572399 3.29666 0.423341 3.52943 0.257997 3.7761 0.0834169 0 3.61791 -3.91732 -0.0975183 -3.68335 -0.272098 -3.45078 -0.437641 -3.23876 -0.600602 -3.02168 -0.761577 -2.8188 -0.899016 -2.62366 -1.04132 -2.42982 -1.16009 -2.23726 -1.29088 -2.06546 -1.39127 -1.8884 -1.49624 -1.72574 -1.58482 -1.55781 -1.66437 -1.40399 -1.73458 -1.25801 -1.7882 -1.11987 -1.83269 -0.982929 -1.86774 -0.860287 -1.89356 -0.738935 -1.9032 -0.638139 -1.9032 -0.538536 -1.90121 -0.446976 -1.88284 -0.362963 -1.85493 -0.286895 -1.81809 -0.231184 -1.77867 -0.164053 -1.71591 -0.124132 -1.65811 -0.0787495 -1.58393 -0.0478654 -1.49326 -0.0245285 -1.40746 -0.00903683 -1.29823 -0.00764655 -1.1868 0.00635557 0zm3.27908 0l-3.28543 0 0.00218473 -0.0930496 0.00625627 -0.0918579 0.0105264 -0.0905669 0.0143993 -0.0890773 0.0183716 -0.0874885 0.0221452 -0.0858996 0.0258195 -0.0840127 0.0293945 -0.0821259 0.0328702 -0.0801398 0.0363459 -0.0780544 0.0395237 -0.0756711 0.0427015 -0.0734863 0.0458793 -0.0709044 0.0487592 -0.0683224 0.051639 -0.0656412 0.0543203 -0.0628606 0.0571009 -0.0598814 0.0595835 -0.0568029 0.0620662 -0.0537245 0.0644495 -0.0504474 0.0666342 -0.047071 0.0687196 -0.043496 0.0709044 -0.0400203 0.0726919 -0.0361473 0.074678 -0.032473 0.0762669 -0.0284015 0.0779551 -0.0243299 0.0794447 -0.0202584 0.0809343 -0.0158889 0.0822252 -0.0115195 0.0834169 -0.00695141 0.0845093 -0.00238334 0.0845093 0.00238334 0.0834169 0.00695141 0.0822252 0.0115195 0.0809343 0.0158889 0.0794447 0.0202584 0.0779551 0.0243299 0.0762669 0.0284015 0.074678 0.032473 0.0726919 0.0361473 0.0709044 0.0400203 0.0687196 0.043496 0.0666342 0.047071 0.0644495 0.0504474 0.0620662 0.0537245 0.0595835 0.0568029 0.0571009 0.0598814 0.0543203 0.0628606 0.051639 0.0656412 0.0487592 0.0683224 0.0458793 0.0709044 0.0427015 0.0734863 0.0395237 0.0756711 0.0363459 0.0780544 0.0328702 0.0801398 0.0293945 0.0821259 0.0258195 0.0840127 0.0221452 0.0858996 0.0183716 0.0874885 0.0143993 0.0890773 0.0105264 0.0905669 0.00625627 0.0918579 0.00218473 0.0930496zm-1.64272 -48.3751l1.63636 1.80896 0 46.5661 -3.27272 0 0 -46.5661 1.63636 -1.80896zm1.63636 1.80896l-3.27272 0 0.00208542 -0.0927517 0.00635557 -0.0914607 0.0104271 -0.0901697 0.0143993 -0.0887794 0.0182723 -0.0871905 0.0220459 -0.0855023 0.0257202 -0.0837148 0.0292952 -0.081828 0.0327709 -0.0798419 0.0361473 -0.0776572 0.0394244 -0.0754724 0.0425029 -0.0730891 0.0456807 -0.0706065 0.0485606 -0.0681238 0.0514404 -0.0653432 0.0541217 -0.0625627 0.0569023 -0.0596828 0.0593849 -0.0566043 0.0617682 -0.0535259 0.0641516 -0.0502488 0.0664356 -0.0468724 0.068521 -0.0433967 0.0705072 -0.0398216 0.0724933 -0.036048 0.0743801 -0.0322744 0.075969 -0.0283022 0.0776572 -0.0243299 0.0791468 -0.0200598 0.0806364 -0.0158889 0.081828 -0.0114202 0.083119 -0.00695141 0.0842114 -0.00238334 0.0842114 0.00238334 0.083119 0.00695141 0.081828 0.0114202 0.0806364 0.0158889 0.0791468 0.0200598 0.0776572 0.0243299 0.075969 0.0283022 0.0743801 0.0322744 0.0724933 0.036048 0.0705072 0.0398216 0.068521 0.0433967 0.0664356 0.0468724 0.0641516 0.0502488 0.0617682 0.0535259 0.0593849 0.0566043 0.0568029 0.0596828 0.054221 0.0625627 0.0514404 0.0653432 0.0485606 0.0681238 0.0456807 0.0706065 0.0425029 0.0730891 0.0394244 0.0754724 0.0361473 0.0776572 0.0327709 0.0798419 0.0292952 0.081828 0.0257202 0.0837148 0.0220459 0.0855023 0.0182723 0.0871905 0.0143993 0.0887794 0.0104271 0.0901697 0.00635557 0.0914607 0.00208542 0.0927517z"/>
     </g>
     <g>
      <path id="_337130784" class="fil3 str0" d="M74.7049 20.8632l19.1416 0 0 10.9567c0,2.69754 0,10.2097 -9.17904,10.2097 -9.96256,0 -9.96256,-7.38766 -9.96256,-10.2097l0 -10.9567z"/>
      <g>
       <path id="_337131960" class="fil3 str0" d="M50.68 45.2045l19.1415 0 0 10.9567c0,2.69764 0,10.2097 -9.17894,10.2097 -9.96256,0 -9.96256,-7.38766 -9.96256,-10.2097l0 -10.9567z"/>
       <path id="_337130616" class="fil3 str0" d="M74.4671 45.2045l19.1415 0 0 10.9567c0,2.69764 0,10.2097 -9.17894,10.2097 -9.96256,0 -9.96256,-7.38766 -9.96256,-10.2097l0 -10.9567z"/>
       <path id="_337130856" class="fil3 str0" d="M98.7298 45.2045l19.1416 0 0 10.9567c0,2.69764 0,10.2097 -9.17894,10.2097 -9.96266,0 -9.96266,-7.38766 -9.96266,-10.2097l0 -10.9567z"/>
      </g>
      <path id="_337130496" class="fil3 str0" d="M74.7049 69.0168l19.1416 0 0 10.9567c0,2.69764 0,10.2097 -9.17904,10.2097 -9.96256,0 -9.96256,-7.38766 -9.96256,-10.2097l0 -10.9567z"/>
     </g>
    </g>
   </g>
   <g>
    <path class="fil3" d="M21.7958 102.443c16.2483,0 32.913,0 49.1628,0 9.20674,18.2476 20.801,15.251 27.3627,-0.109634 15.9245,0 32.3464,0.109634 48.2708,0.109634l10.9665 13.0875c-18.7375,0.0256209 -37.193,0.766244 -55.932,0.793354 -10.2099,12.6502 -23.8865,11.9593 -34.3027,-1.09395 -19.6174,0.0285008 -39.3812,-0.0825232 -58.9987,-0.0540224l13.4706 -12.7329z"/>
    <path id="1" class="fil4" d="M71.7948 102.022l-1.67231 0.841915 0.836155 0.515993 -1.52464 0 -1.52683 0 -1.52901 0 -1.531 0 -1.53279 0 -1.53447 0 -1.53596 0 -1.53745 0 -1.53855 0 -1.53964 0 -1.54053 0 -1.54133 0 -1.54182 0 -1.54242 -0.00367432 -1.54262 0 -1.54282 0 -1.54282 0 -1.54262 0 -1.54242 0.00367432 -1.54182 0 -1.54133 0 -1.54043 0 -1.53964 0 -1.53845 0 -1.53735 0 -1.53586 0 -1.53437 0 -1.53279 0 -1.5308 0 -1.52891 0 -1.52683 0 -1.52444 0 0 -1.8739 1.52444 0 1.52683 0 1.52891 0 1.5308 0 1.53279 0 1.53437 0 1.53586 0 1.53735 0 1.53845 0 1.53964 0 1.54043 0 1.54133 0 1.54182 0 1.54242 0.00367432 1.54262 0 1.54282 0 1.54282 0 1.54262 0 1.54242 -0.00367432 1.54182 0 1.54133 0 1.54053 0 1.53964 0 1.53855 0 1.53745 0 1.53596 0 1.53447 0 1.53279 0 1.531 0 1.52901 0 1.52683 0 1.52464 0 0.836155 0.515993zm-0.836155 1.35791l0 -1.8739 0.0482626 0.00119167 0.0477661 0.00367432 0.0469717 0.00595835 0.0461772 0.00824239 0.0454821 0.0104271 0.044489 0.0126118 0.0435953 0.0147966 0.0427015 0.0167827 0.0416092 0.0187688 0.0404175 0.0206556 0.0393251 0.0225424 0.0381334 0.0244292 0.0367432 0.0261174 0.0354522 0.0278056 0.0341612 0.0293945 0.0325723 0.0310827 0.0310827 0.032473 0.0294938 0.0340619 0.0279049 0.0353529 0.0261174 0.0367432 0.0244292 0.0380341 0.0226417 0.0392258 0.0207549 0.0404175 0.0187688 0.0415098 0.0167827 0.0425029 0.0147966 0.0435953 0.0126118 0.0443897 0.0105264 0.0453828 0.00824239 0.0460779 0.00595835 0.0468724 0.00367432 0.0476668 0.00119167 0.0481633 -0.00119167 0.0481633 -0.00367432 0.0476668 -0.00595835 0.0468724 -0.00824239 0.0460779 -0.0105264 0.0453828 -0.0126118 0.0443897 -0.0147966 0.0435953 -0.0167827 0.0425029 -0.0187688 0.0415098 -0.0207549 0.0404175 -0.0226417 0.0392258 -0.0244292 0.0380341 -0.0261174 0.0367432 -0.0279049 0.0353529 -0.0294938 0.0340619 -0.0310827 0.032473 -0.0325723 0.0310827 -0.0341612 0.0293945 -0.0354522 0.0278056 -0.0367432 0.0261174 -0.0381334 0.0244292 -0.0393251 0.0225424 -0.0404175 0.0206556 -0.0416092 0.0187688 -0.0427015 0.0167827 -0.0435953 0.0147966 -0.044489 0.0126118 -0.0454821 0.0104271 -0.0461772 0.00824239 -0.0469717 0.00595835 -0.0477661 0.00367432 -0.0482626 0.00119167zm27.3627 -1.98354l0 1.8739 0.861875 -0.570909 -0.644396 1.43288 -0.672499 1.36238 -0.702986 1.29038 -0.731884 1.21302 -0.759789 1.13417 -0.786006 1.05721 -0.811031 0.975084 -0.838439 0.891071 -0.864358 0.809343 -0.885312 0.72245 -0.912124 0.629897 -0.934071 0.539628 -0.958202 0.443996 -0.973694 0.346776 -0.995243 0.240519 -1.00795 0.136347 -1.0158 0.0233369 -1.02573 -0.0841121 -1.02355 -0.196824 -1.02345 -0.311026 -1.01838 -0.419766 -1.00845 -0.533769 -1.00071 -0.641814 -0.987895 -0.75532 -0.981142 -0.86694 -0.96565 -0.976276 -0.956117 -1.09465 -0.941618 -1.20369 -0.929403 -1.32166 -0.919473 -1.44133 -0.900803 -1.5588 -0.884617 -1.67797 1.67231 -0.841915 0.855222 1.61958 0.864259 1.49286 0.868032 1.36804 0.878162 1.24857 0.882829 1.1304 0.882829 1.00686 0.885014 0.895838 0.87846 0.778955 0.877864 0.667534 0.868628 0.561376 0.861677 0.453133 0.84976 0.353827 0.840127 0.252634 0.832878 0.160081 0.820366 0.0696134 0.817585 -0.0233369 0.809939 -0.107151 0.804576 -0.196626 0.805073 -0.280837 0.796731 -0.370907 0.794844 -0.458992 0.787396 -0.549459 0.782629 -0.634465 0.769025 -0.721556 0.757604 -0.810634 0.745092 -0.894448 0.727415 -0.976772 0.708349 -1.06088 0.687991 -1.13993 0.666243 -1.21709 0.643105 -1.29664 0.615001 -1.37429 0.861875 -0.570909zm0.861875 1.30299l-1.72375 -0.732083 0.0199605 -0.0437939 0.0219466 -0.042205 0.0238334 -0.0407154 0.0256209 -0.0391265 0.0274084 -0.0375376 0.0289973 -0.0359487 0.0305862 -0.0341612 0.0320758 -0.032473 0.0335654 -0.0307848 0.0348564 -0.0289973 0.036048 -0.0272098 0.037339 -0.0254223 0.0384314 -0.0234362 0.0394244 -0.0216487 0.0404175 -0.0197619 0.0412119 -0.0176764 0.0421057 -0.0157896 0.0428008 -0.0137042 0.0433967 -0.0117181 0.0440918 -0.00963267 0.044489 -0.00754724 0.0448862 -0.00536252 0.0452835 -0.00327709 0.0455814 -0.000993059 0.0456807 0.00129098 0.04578 0.0034757 0.0458793 0.00575974 0.04578 0.00804377 0.0456807 0.0105264 0.0454821 0.0128105 0.0451842 0.0152931 0.0447869 0.0176764 0.0438932 0.0199605 0.0423043 0.0218473 0.0408147 0.0238334 0.0392258 0.0256209 0.0376369 0.0273091 0.0359487 0.028898 0.0342605 0.0305862 0.0325723 0.0319765 0.0307848 0.0334661 0.0290966 0.034757 0.0272098 0.036048 0.0255216 0.0372397 0.0235355 0.0383321 0.0216487 0.0393251 0.0197619 0.0403182 0.0177757 0.0412119 0.0157896 0.0420064 0.0138035 0.0427015 0.0117181 0.0433967 0.00963267 0.0438932 0.00754724 0.0443897 0.00536252 0.0448862 0.00327709 0.0451842 0.000993059 0.0453828 -0.00119167 0.0455814 -0.0034757 0.04578 -0.00585905 0.04578 -0.00804377 0.0456807 -0.0105264 0.0455814 -0.0128105 0.0452835 -0.0152931 0.0451842 -0.0177757 0.0446876zm48.1277 -0.856612l-1.43755 1.20041 0.718776 0.336746 -1.49435 -0.00397223 -1.49704 -0.000893753 -1.49962 -0.00148959 -1.502 -0.00198612 -1.50419 -0.00248265 -1.50617 -0.00297918 -1.50806 -0.00327709 -1.50965 -0.00377362 -1.51104 -0.00397223 -1.51243 -0.00427015 -1.51342 -0.00456807 -1.51441 -0.00466737 -1.51511 -0.00496529 -1.51561 -0.00496529 -1.5161 -0.0050646 -1.5162 -0.0051639 -1.5162 -0.0051639 -1.516 -0.0050646 -1.51561 -0.00496529 -1.51511 -0.00496529 -1.51441 -0.00466737 -1.51352 -0.00456807 -1.51233 -0.00427015 -1.51114 -0.00407154 -1.50965 -0.00367432 -1.50796 -0.00327709 -1.50627 -0.00297918 -1.50419 -0.00248265 -1.5019 -0.00198612 -1.49972 -0.00148959 -1.49704 -0.000893753 -1.49435 0.0033764 0 -1.8739 1.49435 0.00397223 1.49704 0.000893753 1.49972 0.00148959 1.5019 0.00198612 1.50419 0.00248265 1.50627 0.00297918 1.50796 0.00327709 1.50965 0.00367432 1.51114 0.00407154 1.51233 0.00427015 1.51352 0.00456807 1.51441 0.00466737 1.51511 0.00496529 1.51561 0.00496529 1.516 0.0050646 1.5162 0.0051639 1.5162 0.0051639 1.5161 0.0050646 1.51561 0.00496529 1.51511 0.00496529 1.51441 0.00466737 1.51342 0.00456807 1.51243 0.00427015 1.51104 0.00397223 1.50965 0.00377362 1.50806 0.00327709 1.50617 0.00297918 1.50419 0.00248265 1.502 0.00198612 1.49962 0.00148959 1.49704 0.000893753 1.49435 -0.0033764 0.718776 0.336746zm-0.718776 1.53716l0 -1.8739 0.0482626 0.00119167 0.0477661 0.00367432 0.0469717 0.00595835 0.0461772 0.00824239 0.0454821 0.0104271 0.044489 0.0126118 0.0435953 0.0147966 0.0427015 0.0167827 0.0416092 0.0187688 0.0404175 0.0206556 0.0393251 0.0225424 0.0381334 0.0244292 0.0367432 0.0261174 0.0354522 0.0278056 0.0341612 0.0293945 0.0325723 0.0310827 0.0310827 0.032473 0.0294938 0.0340619 0.0279049 0.0353529 0.0261174 0.0367432 0.0244292 0.0380341 0.0226417 0.0392258 0.0207549 0.0404175 0.0187688 0.0415098 0.0167827 0.0425029 0.0147966 0.0435953 0.0126118 0.0443897 0.0105264 0.0453828 0.00824239 0.0460779 0.00595835 0.0468724 0.00367432 0.0476668 0.00119167 0.0481633 -0.00119167 0.0481633 -0.00367432 0.0476668 -0.00595835 0.0468724 -0.00824239 0.0460779 -0.0105264 0.0453828 -0.0126118 0.0443897 -0.0147966 0.0435953 -0.0167827 0.0425029 -0.0187688 0.0415098 -0.0207549 0.0404175 -0.0226417 0.0392258 -0.0244292 0.0380341 -0.0261174 0.0367432 -0.0279049 0.0353529 -0.0294938 0.0340619 -0.0310827 0.032473 -0.0325723 0.0310827 -0.0341612 0.0293945 -0.0354522 0.0278056 -0.0367432 0.0261174 -0.0381334 0.0244292 -0.0393251 0.0225424 -0.0404175 0.0206556 -0.0416092 0.0187688 -0.0427015 0.0167827 -0.0435953 0.0147966 -0.044489 0.0126118 -0.0454821 0.0104271 -0.0461772 0.00824239 -0.0469717 0.00595835 -0.0477661 0.00367432 -0.0482626 0.00119167zm10.9665 13.0838l-0.718776 -0.333072 -10.9665 -13.0875 1.43755 -1.20041 10.9665 13.0875 -0.718776 1.53348zm-0.718776 -0.333072l1.43755 -1.20041 0.0299904 0.0377362 0.0278056 0.0387293 0.0255216 0.0397223 0.0233369 0.0405168 0.0210528 0.0414105 0.0188681 0.042205 0.0165841 0.0427015 0.0144987 0.0433967 0.0122146 0.0437939 0.0100299 0.0441911 0.00794447 0.044489 0.00566043 0.0446876 0.00357501 0.0448862 0.00139028 0.0448862 -0.000794447 0.0448862 -0.00287987 0.0447869 -0.0050646 0.0445883 -0.00715002 0.0443897 -0.00933475 0.0438932 -0.0114202 0.0435953 -0.0135056 0.0429994 -0.015591 0.0424036 -0.0177757 0.0417085 -0.0197619 0.0410133 -0.0218473 0.0400203 -0.0239327 0.0392258 -0.0260181 0.0381334 -0.0280042 0.0370411 -0.030189 0.0358494 -0.0320758 0.0346577 -0.0341612 0.0332675 -0.0362466 0.0317779 -0.0377362 0.0299904 -0.0388286 0.0277063 -0.0398216 0.0254223 -0.0407154 0.0232376 -0.0414105 0.0210528 -0.0423043 0.0187688 -0.0428008 0.0166834 -0.0433967 0.0143993 -0.0438932 0.0122146 -0.0442904 0.0100299 -0.0445883 0.00784516 -0.0447869 0.00566043 -0.0449856 0.00357501 -0.0449856 0.00139028 -0.0449856 -0.000794447 -0.0448862 -0.00287987 -0.0446876 -0.0050646 -0.0443897 -0.00715002 -0.0440918 -0.00933475 -0.0435953 -0.0114202 -0.0430987 -0.0134063 -0.0425029 -0.015591 -0.0418078 -0.0176764 -0.0411126 -0.0197619 -0.0401196 -0.0218473 -0.0392258 -0.0239327 -0.0382328 -0.0259188 -0.0371404 -0.0280042 -0.0359487 -0.0300897 -0.0346577 -0.0320758 -0.0333668 -0.0340619 -0.0318772 -0.0361473zm-54.4835 0.778756l-1.4596 -1.17121 0.729799 -0.34767 1.75593 -0.00456807 1.75076 -0.0085403 1.75295 -0.0121153 1.74798 -0.015591 1.75036 -0.0186695 1.7455 -0.0216487 1.74818 -0.0241313 1.74361 -0.0265147 1.74639 -0.0286001 1.7457 -0.0304869 1.745 -0.0319765 1.74451 -0.0333668 1.74043 -0.0343598 1.74381 -0.035055 1.74361 -0.0357501 1.74351 -0.0358494 1.74341 -0.0359487 1.74361 -0.0356508 1.74371 -0.035055 1.74778 -0.0343598 1.74451 -0.0332675 1.745 -0.0319765 1.7456 -0.0303876 1.74639 -0.0285008 1.75086 -0.0265147 1.74808 -0.024032 1.75275 -0.0215494 1.75027 -0.0185702 1.75523 -0.0153924 1.75275 -0.0121153 1.75801 -0.00834169 1.75583 -0.00446876 0 1.86655 -1.75583 0.00446876 -1.75066 0.00834169 -1.75275 0.0121153 -1.74788 0.0153924 -1.75027 0.0185702 -1.7454 0.0215494 -1.74808 0.024032 -1.74351 0.0265147 -1.74639 0.0285008 -1.7456 0.0303876 -1.745 0.0319765 -1.74451 0.0332675 -1.74043 0.0343598 -1.74371 0.035055 -1.74361 0.0356508 -1.74341 0.0359487 -1.74351 0.0358494 -1.74361 0.0357501 -1.74381 0.035055 -1.74778 0.0343598 -1.74451 0.0333668 -1.745 0.0319765 -1.7457 0.0304869 -1.74639 0.0286001 -1.75096 0.0265147 -1.74818 0.0241313 -1.75285 0.0216487 -1.75036 0.0186695 -1.75533 0.015591 -1.75295 0.0121153 -1.75811 0.0085403 -1.75593 0.00456807 0.729799 -0.34767zm-0.729799 -1.51888l0 1.86655 -0.0481633 -0.00119167 -0.0474682 -0.00367432 -0.0467731 -0.00585905 -0.0460779 -0.00824239 -0.0451842 -0.0104271 -0.0443897 -0.0126118 -0.043496 -0.014598 -0.0424036 -0.0167827 -0.0414105 -0.0186695 -0.0403182 -0.0205563 -0.0392258 -0.0225424 -0.0379348 -0.0242306 -0.0366439 -0.0260181 -0.0353529 -0.0277063 -0.0338633 -0.0293945 -0.032473 -0.0308841 -0.0309834 -0.0323737 -0.0293945 -0.0338633 -0.0278056 -0.0352536 -0.0260181 -0.0366439 -0.0243299 -0.0378355 -0.0225424 -0.0391265 -0.0206556 -0.0402189 -0.0187688 -0.0413112 -0.0166834 -0.0424036 -0.0147966 -0.0432974 -0.0125125 -0.0442904 -0.0105264 -0.0451842 -0.00814308 -0.0459786 -0.00595835 -0.0466737 -0.00367432 -0.0473689 -0.00119167 -0.048064 0.00119167 -0.048064 0.00367432 -0.0473689 0.00595835 -0.0466737 0.00814308 -0.0459786 0.0105264 -0.0451842 0.0125125 -0.0442904 0.0147966 -0.0432974 0.0166834 -0.0424036 0.0187688 -0.0413112 0.0206556 -0.0402189 0.0225424 -0.0391265 0.0243299 -0.0378355 0.0260181 -0.0366439 0.0278056 -0.0352536 0.0293945 -0.0338633 0.0309834 -0.0323737 0.032473 -0.0308841 0.0338633 -0.0293945 0.0353529 -0.0277063 0.0366439 -0.0260181 0.0379348 -0.0242306 0.0392258 -0.0225424 0.0403182 -0.0205563 0.0414105 -0.0186695 0.0424036 -0.0167827 0.043496 -0.014598 0.0443897 -0.0126118 0.0451842 -0.0104271 0.0460779 -0.00824239 0.0467731 -0.00585905 0.0474682 -0.00367432 0.0481633 -0.00119167zm-34.3027 0.7726l0 -1.86655 0.733473 0.351344 0.960188 1.1582 0.978063 1.08561 0.994647 1.0164 1.00279 0.939831 1.01699 0.866642 1.02623 0.793454 1.03794 0.723542 1.04112 0.649758 1.05036 0.575974 1.05105 0.505467 1.05781 0.431285 1.06337 0.360679 1.06039 0.286001 1.06337 0.218473 1.06168 0.147271 1.06218 0.0758697 1.06535 0.00407154 1.05989 -0.0677266 1.05671 -0.139624 1.05244 -0.211819 1.05066 -0.280539 1.0438 -0.356806 1.03953 -0.429498 1.03387 -0.502388 1.02722 -0.579052 1.01908 -0.65234 1.00994 -0.729501 0.99574 -0.802987 0.987597 -0.884219 0.971112 -0.958202 0.956812 -1.03963 0.941519 -1.11391 1.4596 1.17121 -0.992761 1.17985 -1.0156 1.09822 -1.03705 1.02394 -1.05373 0.94281 -1.07638 0.868926 -1.09058 0.788091 -1.10706 0.710931 -1.12255 0.630294 -1.13656 0.55363 -1.14956 0.473391 -1.16118 0.39335 -1.16804 0.317084 -1.17717 0.233865 -1.18144 0.154321 -1.18442 0.0748766 -1.18273 -0.00407154 -1.1869 -0.0830197 -1.18641 -0.161968 -1.18075 -0.240519 -1.17777 -0.322545 -1.16605 -0.397223 -1.16049 -0.475178 -1.15374 -0.549559 -1.13834 -0.627216 -1.12911 -0.701 -1.11123 -0.774784 -1.09971 -0.851846 -1.08293 -0.925233 -1.06873 -0.998421 -1.04609 -1.06764 -1.02931 -1.1442 -1.01163 -1.21679 0.733473 0.351344zm0.733473 -1.51521l-1.46695 1.16386 -0.0290966 -0.0384314 -0.0267133 -0.0394244 -0.0245285 -0.0403182 -0.0222445 -0.0411126 -0.0200598 -0.0419071 -0.0177757 -0.0426022 -0.015591 -0.043198 -0.013307 -0.0435953 -0.0111223 -0.0440918 -0.00893753 -0.0443897 -0.0068521 -0.0446876 -0.00456807 -0.0448862 -0.00238334 -0.0448862 -0.000198612 -0.0449856 0.00188681 -0.0447869 0.00397223 -0.0446876 0.00615696 -0.044489 0.00834169 -0.0440918 0.0103278 -0.0436946 0.0125125 -0.0432974 0.014598 -0.0426022 0.0166834 -0.0420064 0.0187688 -0.0413112 0.0208542 -0.0404175 0.0228403 -0.0395237 0.0249258 -0.0385307 0.0269119 -0.0375376 0.0289973 -0.0362466 0.0309834 -0.0351543 0.0329695 -0.033764 0.035055 -0.0323737 0.0369418 -0.0308841 0.0385307 -0.0289973 0.0394244 -0.0267133 0.0404175 -0.0244292 0.0413112 -0.0222445 0.0420064 -0.0199605 0.0426022 -0.0177757 0.0432974 -0.0154917 0.0436946 -0.013307 0.0441911 -0.0111223 0.044489 -0.00893753 0.0447869 -0.0067528 0.0448862 -0.00456807 0.0450849 -0.00238334 0.0449856 -0.000297918 0.0449856 0.00188681 0.0446876 0.00407154 0.0445883 0.00615696 0.0441911 0.00824239 0.0437939 0.0103278 0.0432974 0.0125125 0.0428008 0.014598 0.0421057 0.0165841 0.0413112 0.0187688 0.0405168 0.0207549 0.039623 0.0228403 0.03863 0.0248265 0.0375376 0.0269119 0.0364452 0.028898 0.0351543 0.0308841 0.033764 0.0329695 0.032473 0.0348564 0.0309834 0.0369418zm-60.3777 -0.149157l1.29098 1.35413 -0.645488 -1.61034 1.83954 -0.00228403 1.84034 -0.00148959 1.84113 -0.000794447 1.84183 -0.00377362 1.84242 0.00417085 1.84312 0.000993059 1.84351 0.00158889 1.84411 0.00198612 1.84451 0.00248265 1.8448 0.00278056 1.8452 0.00307848 1.8455 0.0033764 1.8456 0.0034757 1.8459 0.00377362 1.8459 0.00377362 1.846 0.00387293 1.846 0.00387293 1.8459 0.00377362 1.8458 0.00377362 1.8457 0.0034757 1.8455 0.0033764 1.8451 0.00307848 1.8449 0.00278056 1.84451 0.00248265 1.84401 0.00198612 1.84361 0.00158889 1.84302 0.000993059 1.84242 -0.00317779 1.84183 0.00357501 1.84113 -0.000794447 1.84034 -0.00148959 1.83954 -0.00228403 0 1.86655 -1.83954 0.00228403 -1.84034 0.00148959 -1.84113 0.000794447 -1.84183 0.00377362 -1.84242 -0.00417085 -1.84302 -0.000993059 -1.84361 -0.00158889 -1.84401 -0.00198612 -1.84451 -0.00248265 -1.8449 -0.00278056 -1.8451 -0.00307848 -1.8455 -0.0033764 -1.8457 -0.0034757 -1.8458 -0.00377362 -1.8459 -0.00377362 -1.846 -0.00387293 -1.846 -0.00387293 -1.8459 -0.00377362 -1.8459 -0.00377362 -1.8456 -0.0034757 -1.8455 -0.0033764 -1.8452 -0.00307848 -1.8448 -0.00278056 -1.84451 -0.00248265 -1.84411 -0.00198612 -1.84351 -0.00158889 -1.84312 -0.000993059 -1.84242 0.00317779 -1.84183 -0.00357501 -1.84113 0.000794447 -1.84034 0.00148959 -1.83954 0.00228403 -0.645488 -1.61034zm0.645488 -0.256209l0 1.86655 -0.0481633 -0.00119167 -0.0474682 -0.00367432 -0.0467731 -0.00585905 -0.0460779 -0.00824239 -0.0451842 -0.0104271 -0.0443897 -0.0126118 -0.043496 -0.014598 -0.0424036 -0.0167827 -0.0414105 -0.0186695 -0.0403182 -0.0205563 -0.0392258 -0.0225424 -0.0379348 -0.0242306 -0.0366439 -0.0260181 -0.0353529 -0.0277063 -0.0338633 -0.0293945 -0.0325723 -0.0308841 -0.0308841 -0.0323737 -0.0293945 -0.0338633 -0.0278056 -0.0352536 -0.0260181 -0.0366439 -0.0243299 -0.0378355 -0.0225424 -0.0391265 -0.0206556 -0.0402189 -0.0187688 -0.0413112 -0.0166834 -0.0424036 -0.0147966 -0.0432974 -0.0125125 -0.0442904 -0.0105264 -0.0451842 -0.00814308 -0.0459786 -0.00595835 -0.0466737 -0.00367432 -0.0473689 -0.00119167 -0.048064 0.00119167 -0.048064 0.00367432 -0.0473689 0.00595835 -0.0466737 0.00814308 -0.0459786 0.0105264 -0.0451842 0.0125125 -0.0442904 0.0147966 -0.0432974 0.0166834 -0.0424036 0.0187688 -0.0413112 0.0206556 -0.0402189 0.0225424 -0.0391265 0.0243299 -0.0378355 0.0260181 -0.0366439 0.0278056 -0.0352536 0.0293945 -0.0338633 0.0308841 -0.0323737 0.0325723 -0.0308841 0.0338633 -0.0293945 0.0353529 -0.0277063 0.0366439 -0.0260181 0.0379348 -0.0242306 0.0392258 -0.0225424 0.0403182 -0.0205563 0.0414105 -0.0186695 0.0424036 -0.0167827 0.043496 -0.014598 0.0443897 -0.0126118 0.0451842 -0.0104271 0.0460779 -0.00824239 0.0467731 -0.00585905 0.0474682 -0.00367432 0.0481633 -0.00119167zm13.4706 -12.7366l0.645488 1.61402 -13.4706 12.7329 -1.29098 -1.35413 13.4706 -12.7329 0.645488 -0.259883zm0.645488 1.61402l-1.29098 -1.35413 0.0357501 -0.0322744 0.0369418 -0.0300897 0.0380341 -0.0279049 0.0391265 -0.0258195 0.0400203 -0.0235355 0.040914 -0.0214501 0.0417085 -0.0192653 0.0423043 -0.0171799 0.0429994 -0.0149952 0.043496 -0.0128105 0.0439925 -0.0106257 0.0442904 -0.0085403 0.0445883 -0.00635557 0.0447869 -0.00427015 0.0448862 -0.00208542 0.0449856 0 0.0448862 0.00218473 0.0447869 0.00436946 0.044489 0.00645488 0.0441911 0.0085403 0.0438932 0.010725 0.0432974 0.0128105 0.0429001 0.0149952 0.0421057 0.0170806 0.0415098 0.0192653 0.0406161 0.0212515 0.0398216 0.0235355 0.0387293 0.0255216 0.0378355 0.0277063 0.0365446 0.0296924 0.0354522 0.0319765 0.0340619 0.0339626 0.0323737 0.0356508 0.0300897 0.0369418 0.0280042 0.0379348 0.0258195 0.0390272 0.0236348 0.039921 0.0214501 0.0408147 0.0193646 0.0416092 0.0171799 0.0423043 0.0149952 0.0428008 0.0128105 0.043496 0.010725 0.0437939 0.0085403 0.0442904 0.00635557 0.044489 0.00427015 0.0446876 0.00208542 0.0448862 0 0.0447869 -0.00218473 0.0447869 -0.00436946 0.0446876 -0.00645488 0.0443897 -0.00863961 0.0441911 -0.010725 0.0436946 -0.0128105 0.0432974 -0.0149952 0.0427015 -0.0171799 0.0421057 -0.0192653 0.0414105 -0.0213508 0.0406161 -0.0234362 0.039623 -0.0256209 0.0387293 -0.0278056 0.0377362 -0.0297918 0.0365446 -0.0319765 0.0352536 -0.0340619 0.0340619z"/>
   </g>
   <g>
    <path class="fil5 str1" d="M37.0076 147.138c17.2314,0 31.2035,12.3412 31.2035,27.5592 0,15.2178 -13.9721,27.5599 -31.2035,27.5599 -17.2305,0 -31.2035,-12.342 -31.2035,-27.5599 0,-15.2179 13.973,-27.5592 31.2035,-27.5592z"/>
    <path class="fil5 str2" d="M83.4715 147.138c17.2305,0 31.2035,12.3412 31.2035,27.5592 0,15.2178 -13.973,27.5599 -31.2035,27.5599 -17.2306,0 -31.2035,-12.342 -31.2035,-27.5599 0,-15.2179 13.9729,-27.5592 31.2035,-27.5592z"/>
    <path class="fil5 str1" d="M131.302 147.138c17.2305,0 31.2035,12.3412 31.2035,27.5592 0,15.2178 -13.973,27.5599 -31.2035,27.5599 -17.2314,0 -31.2035,-12.342 -31.2035,-27.5599 0,-15.2179 13.9721,-27.5592 31.2035,-27.5592z"/>
   </g>
   <g>
    <g>
     <path class="fil4" d="M19.3039 104.362l-0.00695141 1.8032 -0.04578 -0.00139028 -0.0451842 -0.00357501 -0.044489 -0.00595835 -0.0437939 -0.00804377 -0.0429994 -0.0103278 -0.042205 -0.0123139 -0.0412119 -0.0143 -0.0404175 -0.0162862 -0.0393251 -0.0182723 -0.0382328 -0.0200598 -0.0372397 -0.0218473 -0.0359487 -0.0235355 -0.0348564 -0.025323 -0.0334661 -0.0269119 -0.0321751 -0.0284015 -0.0307848 -0.0299904 -0.0293945 -0.03148 -0.0278056 -0.0327709 -0.0263161 -0.0342605 -0.0246279 -0.0354522 -0.023039 -0.0366439 -0.0212515 -0.0378355 -0.0194639 -0.0389279 -0.0176764 -0.0400203 -0.0157896 -0.0410133 -0.0138035 -0.0420064 -0.0119167 -0.0428008 -0.00973197 -0.0436946 -0.00764655 -0.0443897 -0.00546182 -0.0451842 -0.00327709 -0.04578 -0.000993059 -0.0463758 0.00129098 -0.0463758 0.00367432 -0.04578 0.00585905 -0.0450849 0.00794447 -0.0443897 0.0101292 -0.0435953 0.0121153 -0.0427015 0.0142007 -0.0418078 0.0160875 -0.040914 0.0179744 -0.0398216 0.0197619 -0.0388286 0.0215494 -0.0376369 0.0233369 -0.0365446 0.0249258 -0.0352536 0.0265147 -0.0339626 0.0281036 -0.0325723 0.0295931 -0.031182 0.0309834 -0.0296924 0.032473 -0.0282029 0.0336647 -0.026614 0.035055 -0.0250251 0.0361473 -0.0233369 0.037339 -0.0215494 0.0384314 -0.0197619 0.0395237 -0.0178751 0.0404175 -0.0159882 0.0414105 -0.0140021 0.0423043 -0.012016 0.0430987 -0.00993059 0.0437939 -0.00774586 0.0445883 -0.00556113 0.0451842 -0.00327709 0.04578 -0.000993059zm53.1937 2.02117l-53.2006 -0.217976 0.00695141 -1.8032 53.2006 0.217976 -0.00695141 1.8032zm0 0l0.00695141 -1.8032 0.04578 0.00139028 0.0451842 0.00357501 0.044489 0.00595835 0.0437939 0.00804377 0.0429994 0.0103278 0.042205 0.0123139 0.0412119 0.0143 0.0404175 0.0162862 0.0393251 0.0182723 0.0382328 0.0200598 0.0372397 0.0218473 0.0359487 0.0235355 0.0348564 0.025323 0.0334661 0.0269119 0.0321751 0.0284015 0.0307848 0.0299904 0.0293945 0.03148 0.0278056 0.0327709 0.0263161 0.0342605 0.0246279 0.0354522 0.023039 0.0366439 0.0212515 0.0378355 0.0194639 0.0389279 0.0176764 0.0400203 0.0157896 0.0410133 0.0138035 0.0420064 0.0119167 0.0428008 0.00973197 0.0436946 0.00764655 0.0443897 0.00546182 0.0451842 0.00327709 0.04578 0.000993059 0.0463758 -0.00129098 0.0463758 -0.00367432 0.04578 -0.00585905 0.0450849 -0.00794447 0.0443897 -0.0101292 0.0435953 -0.0121153 0.0427015 -0.0142007 0.0418078 -0.0160875 0.040914 -0.0179744 0.0398216 -0.0197619 0.0388286 -0.0215494 0.0376369 -0.0233369 0.0365446 -0.0249258 0.0352536 -0.0265147 0.0339626 -0.0281036 0.0325723 -0.0295931 0.031182 -0.0309834 0.0296924 -0.032473 0.0282029 -0.0336647 0.026614 -0.035055 0.0250251 -0.0361473 0.0233369 -0.037339 0.0215494 -0.0384314 0.0197619 -0.0395237 0.0178751 -0.0404175 0.0159882 -0.0414105 0.0140021 -0.0423043 0.012016 -0.0430987 0.00993059 -0.0437939 0.00774586 -0.0445883 0.00556113 -0.0451842 0.00327709 -0.04578 0.000993059z"/>
    </g>
    <g>
     <path class="fil4" d="M97.1036 104.36l-0.00695141 1.80896 -0.0453828 -0.00139028 -0.0446876 -0.00367432 -0.0440918 -0.00585905 -0.0433967 -0.00814308 -0.0426022 -0.0102285 -0.0417085 -0.0124132 -0.040914 -0.0143993 -0.0400203 -0.0162862 -0.0389279 -0.0182723 -0.0379348 -0.0201591 -0.0368425 -0.0219466 -0.0356508 -0.0236348 -0.0344591 -0.0254223 -0.0331682 -0.0269119 -0.0318772 -0.0286001 -0.0304869 -0.0300897 -0.0290966 -0.03148 -0.0275077 -0.0329695 -0.0260181 -0.0342605 -0.0245285 -0.0355515 -0.022741 -0.0368425 -0.0210528 -0.0379348 -0.0193646 -0.0391265 -0.0174778 -0.0401196 -0.015591 -0.0411126 -0.0137042 -0.0421057 -0.0117181 -0.0429994 -0.00973197 -0.0437939 -0.00754724 -0.0445883 -0.00546182 -0.0452835 -0.00317779 -0.0458793 -0.000993059 -0.0465744 0.00129098 -0.0465744 0.00357501 -0.0458793 0.00585905 -0.0452835 0.00784516 -0.044489 0.0100299 -0.0436946 0.012016 -0.0429001 0.0140021 -0.0419071 0.0159882 -0.0410133 0.0177757 -0.0400203 0.0196626 -0.0389279 0.0213508 -0.0377362 0.023039 -0.0366439 0.0247272 -0.0353529 0.0263161 -0.0340619 0.0278056 -0.0326716 0.0292952 -0.0312813 0.0307848 -0.0298911 0.0320758 -0.0283022 0.0333668 -0.0267133 0.0346577 -0.0250251 0.0358494 -0.0234362 0.0370411 -0.0215494 0.0380341 -0.0198612 0.0391265 -0.0179744 0.0401196 -0.0159882 0.040914 -0.0141014 0.0419071 -0.012016 0.0427015 -0.00993059 0.0433967 -0.00774586 0.0440918 -0.00566043 0.0447869 -0.00327709 0.0453828 -0.000993059zm51.4181 2.02693l-51.425 -0.217976 0.00695141 -1.80896 51.425 0.217976 -0.00695141 1.80896zm0 0l0.00695141 -1.80896 0.0453828 0.00139028 0.0446876 0.00367432 0.0440918 0.00585905 0.0433967 0.00814308 0.0426022 0.0102285 0.0417085 0.0124132 0.040914 0.0143993 0.0400203 0.0162862 0.0389279 0.0182723 0.0379348 0.0201591 0.0368425 0.0219466 0.0356508 0.0236348 0.0344591 0.0254223 0.0331682 0.0269119 0.0318772 0.0286001 0.0304869 0.0300897 0.0290966 0.03148 0.0275077 0.0329695 0.0260181 0.0342605 0.0245285 0.0355515 0.022741 0.0368425 0.0210528 0.0379348 0.0193646 0.0391265 0.0174778 0.0401196 0.015591 0.0411126 0.0137042 0.0421057 0.0117181 0.0429994 0.00973197 0.0437939 0.00754724 0.0445883 0.00546182 0.0452835 0.00317779 0.0458793 0.000993059 0.0465744 -0.00129098 0.0465744 -0.00357501 0.0458793 -0.00585905 0.0452835 -0.00784516 0.044489 -0.0100299 0.0436946 -0.012016 0.0429001 -0.0140021 0.0419071 -0.0159882 0.0410133 -0.0177757 0.0400203 -0.0196626 0.0389279 -0.0213508 0.0377362 -0.023039 0.0366439 -0.0247272 0.0353529 -0.0263161 0.0340619 -0.0278056 0.0326716 -0.0292952 0.0312813 -0.0307848 0.0298911 -0.0320758 0.0283022 -0.0333668 0.0267133 -0.0346577 0.0250251 -0.0358494 0.0234362 -0.0370411 0.0215494 -0.0380341 0.0198612 -0.0391265 0.0179744 -0.0401196 0.0159882 -0.040914 0.0141014 -0.0419071 0.012016 -0.0427015 0.00993059 -0.0433967 0.00774586 -0.0440918 0.00566043 -0.0447869 0.00327709 -0.0453828 0.000993059z"/>
    </g>
    <g>
     <path class="fil4" d="M15.9465 107.695l0 1.80737 -0.0450849 -0.00119167 -0.044489 -0.0034757 -0.0437939 -0.00575974 -0.0430987 -0.00794447 -0.0424036 -0.0101292 -0.0416092 -0.0121153 -0.0407154 -0.0142007 -0.0397223 -0.0161869 -0.0388286 -0.0180737 -0.0377362 -0.0199605 -0.0366439 -0.0218473 -0.0355515 -0.0234362 -0.0343598 -0.0252237 -0.0330688 -0.0268126 -0.0317779 -0.0284015 -0.0304869 -0.0299904 -0.0289973 -0.0313806 -0.0275077 -0.0327709 -0.0260181 -0.0341612 -0.0244292 -0.0353529 -0.022741 -0.0367432 -0.0210528 -0.0378355 -0.0193646 -0.0389279 -0.0175771 -0.0400203 -0.0156903 -0.0410133 -0.0137042 -0.0420064 -0.0118174 -0.0429001 -0.00983128 -0.0436946 -0.00764655 -0.044489 -0.00556113 -0.0452835 -0.0034757 -0.0458793 -0.00109236 -0.0464751 0.00109236 -0.0464751 0.0034757 -0.0458793 0.00556113 -0.0452835 0.00764655 -0.044489 0.00983128 -0.0436946 0.0118174 -0.0429001 0.0137042 -0.0420064 0.0156903 -0.0410133 0.0175771 -0.0400203 0.0193646 -0.0389279 0.0210528 -0.0378355 0.022741 -0.0367432 0.0244292 -0.0353529 0.0260181 -0.0341612 0.0275077 -0.0327709 0.0289973 -0.0313806 0.0304869 -0.0299904 0.0317779 -0.0284015 0.0330688 -0.0268126 0.0343598 -0.0252237 0.0355515 -0.0234362 0.0366439 -0.0218473 0.0377362 -0.0199605 0.0388286 -0.0180737 0.0397223 -0.0161869 0.0407154 -0.0142007 0.0416092 -0.0121153 0.0424036 -0.0101292 0.0430987 -0.00794447 0.0437939 -0.00575974 0.044489 -0.0034757 0.0450849 -0.00119167zm58.1545 1.84282l-58.1545 -0.0354522 0 -1.80737 58.1545 0.0354522 0 1.80737zm0 0l0 -1.80737 0.0450849 0.00119167 0.044489 0.0034757 0.0437939 0.00575974 0.0430987 0.00794447 0.0424036 0.0101292 0.0416092 0.0121153 0.0407154 0.0142007 0.0397223 0.0161869 0.0388286 0.0180737 0.0377362 0.0199605 0.0366439 0.0218473 0.0355515 0.0234362 0.0343598 0.0252237 0.0330688 0.0268126 0.0317779 0.0284015 0.0304869 0.0299904 0.0289973 0.0313806 0.0275077 0.0327709 0.0260181 0.0341612 0.0244292 0.0353529 0.022741 0.0367432 0.0210528 0.0378355 0.0193646 0.0389279 0.0175771 0.0400203 0.0156903 0.0410133 0.0137042 0.0420064 0.0118174 0.0429001 0.00983128 0.0436946 0.00764655 0.044489 0.00556113 0.0452835 0.0034757 0.0458793 0.00109236 0.0464751 -0.00109236 0.0464751 -0.0034757 0.0458793 -0.00556113 0.0452835 -0.00764655 0.044489 -0.00983128 0.0436946 -0.0118174 0.0429001 -0.0137042 0.0420064 -0.0156903 0.0410133 -0.0175771 0.0400203 -0.0193646 0.0389279 -0.0210528 0.0378355 -0.022741 0.0367432 -0.0244292 0.0353529 -0.0260181 0.0341612 -0.0275077 0.0327709 -0.0289973 0.0313806 -0.0304869 0.0299904 -0.0317779 0.0284015 -0.0330688 0.0268126 -0.0343598 0.0252237 -0.0355515 0.0234362 -0.0366439 0.0218473 -0.0377362 0.0199605 -0.0388286 0.0180737 -0.0397223 0.0161869 -0.0407154 0.0142007 -0.0416092 0.0121153 -0.0424036 0.0101292 -0.0430987 0.00794447 -0.0437939 0.00575974 -0.044489 0.0034757 -0.0450849 0.00119167z"/>
    </g>
    <g>
     <path class="fil4" d="M94.9097 108.063l0 1.80737 -0.0452835 -0.00119167 -0.0447869 -0.0034757 -0.0440918 -0.00575974 -0.0433967 -0.00794447 -0.0426022 -0.0101292 -0.0418078 -0.0121153 -0.040914 -0.0142007 -0.0400203 -0.0161869 -0.0390272 -0.0180737 -0.0379348 -0.0199605 -0.0369418 -0.0218473 -0.0357501 -0.0234362 -0.0345584 -0.0252237 -0.0332675 -0.0268126 -0.0319765 -0.0284015 -0.0305862 -0.0299904 -0.0290966 -0.0313806 -0.0277063 -0.0327709 -0.0262167 -0.0341612 -0.0245285 -0.0353529 -0.0229397 -0.0367432 -0.0211521 -0.0378355 -0.0194639 -0.0389279 -0.0176764 -0.0400203 -0.0157896 -0.0410133 -0.0138035 -0.0420064 -0.0119167 -0.0429001 -0.00983128 -0.0436946 -0.00774586 -0.044489 -0.00556113 -0.0452835 -0.0033764 -0.0458793 -0.00119167 -0.0464751 0.00119167 -0.0464751 0.0033764 -0.0458793 0.00556113 -0.0452835 0.00774586 -0.044489 0.00983128 -0.0436946 0.0119167 -0.0429001 0.0138035 -0.0420064 0.0157896 -0.0410133 0.0176764 -0.0400203 0.0194639 -0.0389279 0.0211521 -0.0378355 0.0229397 -0.0367432 0.0245285 -0.0353529 0.0262167 -0.0341612 0.0277063 -0.0327709 0.0290966 -0.0313806 0.0305862 -0.0299904 0.0319765 -0.0284015 0.0332675 -0.0268126 0.0345584 -0.0252237 0.0357501 -0.0234362 0.0369418 -0.0218473 0.0379348 -0.0199605 0.0390272 -0.0180737 0.0400203 -0.0161869 0.040914 -0.0142007 0.0418078 -0.0121153 0.0426022 -0.0101292 0.0433967 -0.00794447 0.0440918 -0.00575974 0.0447869 -0.0034757 0.0452835 -0.00119167zm56.0886 1.84153l-56.0886 -0.0341612 0 -1.80737 56.0886 0.0341612 0 1.80737zm0 0l0 -1.80737 0.0452835 0.00119167 0.0447869 0.0034757 0.0440918 0.00575974 0.0433967 0.00794447 0.0426022 0.0101292 0.0418078 0.0121153 0.040914 0.0142007 0.0400203 0.0161869 0.0390272 0.0180737 0.0379348 0.0199605 0.0369418 0.0218473 0.0357501 0.0234362 0.0345584 0.0252237 0.0332675 0.0268126 0.0319765 0.0284015 0.0305862 0.0299904 0.0290966 0.0313806 0.0277063 0.0327709 0.0262167 0.0341612 0.0245285 0.0353529 0.0229397 0.0367432 0.0211521 0.0378355 0.0194639 0.0389279 0.0176764 0.0400203 0.0157896 0.0410133 0.0138035 0.0420064 0.0119167 0.0429001 0.00983128 0.0436946 0.00774586 0.044489 0.00556113 0.0452835 0.0033764 0.0458793 0.00119167 0.0464751 -0.00119167 0.0464751 -0.0033764 0.0458793 -0.00556113 0.0452835 -0.00774586 0.044489 -0.00983128 0.0436946 -0.0119167 0.0429001 -0.0138035 0.0420064 -0.0157896 0.0410133 -0.0176764 0.0400203 -0.0194639 0.0389279 -0.0211521 0.0378355 -0.0229397 0.0367432 -0.0245285 0.0353529 -0.0262167 0.0341612 -0.0277063 0.0327709 -0.0290966 0.0313806 -0.0305862 0.0299904 -0.0319765 0.0284015 -0.0332675 0.0268126 -0.0345584 0.0252237 -0.0357501 0.0234362 -0.0369418 0.0218473 -0.0379348 0.0199605 -0.0390272 0.0180737 -0.0400203 0.0161869 -0.040914 0.0142007 -0.0418078 0.0121153 -0.0426022 0.0101292 -0.0433967 0.00794447 -0.0440918 0.00575974 -0.0447869 0.0034757 -0.0452835 0.00119167z"/>
    </g>
    <g>
     <path class="fil4" d="M12.9685 110.952l0 1.80737 -0.0458793 -0.00119167 -0.0453828 -0.0034757 -0.0445883 -0.00575974 -0.0439925 -0.00794447 -0.0430987 -0.0101292 -0.0424036 -0.0121153 -0.0414105 -0.0142007 -0.0405168 -0.0161869 -0.0395237 -0.0180737 -0.0385307 -0.0199605 -0.037339 -0.0218473 -0.0362466 -0.0234362 -0.0349557 -0.0252237 -0.033764 -0.0268126 -0.0323737 -0.0284015 -0.0309834 -0.0299904 -0.0294938 -0.0313806 -0.0281036 -0.0327709 -0.0265147 -0.0341612 -0.0248265 -0.0353529 -0.0232376 -0.0367432 -0.0214501 -0.0378355 -0.0197619 -0.0389279 -0.0178751 -0.0400203 -0.0159882 -0.0410133 -0.0140021 -0.0420064 -0.012016 -0.0429001 -0.00993059 -0.0436946 -0.00784516 -0.044489 -0.00575974 -0.0452835 -0.0033764 -0.0458793 -0.00119167 -0.0464751 0.00119167 -0.0464751 0.0033764 -0.0458793 0.00575974 -0.0452835 0.00784516 -0.044489 0.00993059 -0.0436946 0.012016 -0.0429001 0.0140021 -0.0420064 0.0159882 -0.0410133 0.0178751 -0.0400203 0.0197619 -0.0389279 0.0214501 -0.0378355 0.0232376 -0.0367432 0.0248265 -0.0353529 0.0265147 -0.0341612 0.0281036 -0.0327709 0.0294938 -0.0313806 0.0309834 -0.0299904 0.0323737 -0.0284015 0.033764 -0.0268126 0.0349557 -0.0252237 0.0362466 -0.0234362 0.037339 -0.0218473 0.0385307 -0.0199605 0.0395237 -0.0180737 0.0405168 -0.0161869 0.0414105 -0.0142007 0.0424036 -0.0121153 0.0430987 -0.0101292 0.0439925 -0.00794447 0.0445883 -0.00575974 0.0453828 -0.0034757 0.0458793 -0.00119167zm59.1987 0.439925l-0.710335 1.45304 -58.4884 -0.0856016 0 -1.80737 58.4884 0.0856016 0.710335 0.354323zm-0.710335 1.45304l0 -1.80737 0.0458793 0.00119167 0.0453828 0.0034757 0.0445883 0.00575974 0.0439925 0.00794447 0.0430987 0.0101292 0.0424036 0.0121153 0.0414105 0.0142007 0.0405168 0.0161869 0.0395237 0.0180737 0.0385307 0.0199605 0.037339 0.0218473 0.0362466 0.0234362 0.0349557 0.0252237 0.033764 0.0268126 0.0323737 0.0284015 0.0309834 0.0299904 0.0294938 0.0313806 0.0281036 0.0327709 0.0265147 0.0341612 0.0248265 0.0353529 0.0232376 0.0367432 0.0214501 0.0378355 0.0197619 0.0389279 0.0178751 0.0400203 0.0159882 0.0410133 0.0140021 0.0420064 0.012016 0.0429001 0.00993059 0.0436946 0.00784516 0.044489 0.00575974 0.0452835 0.0033764 0.0458793 0.00119167 0.0464751 -0.00119167 0.0464751 -0.0033764 0.0458793 -0.00575974 0.0452835 -0.00784516 0.044489 -0.00993059 0.0436946 -0.012016 0.0429001 -0.0140021 0.0420064 -0.0159882 0.0410133 -0.0178751 0.0400203 -0.0197619 0.0389279 -0.0214501 0.0378355 -0.0232376 0.0367432 -0.0248265 0.0353529 -0.0265147 0.0341612 -0.0281036 0.0327709 -0.0294938 0.0313806 -0.0309834 0.0299904 -0.0323737 0.0284015 -0.033764 0.0268126 -0.0349557 0.0252237 -0.0362466 0.0234362 -0.037339 0.0218473 -0.0385307 0.0199605 -0.0395237 0.0180737 -0.0405168 0.0161869 -0.0414105 0.0142007 -0.0424036 0.0121153 -0.0430987 0.0101292 -0.0439925 0.00794447 -0.0445883 0.00575974 -0.0453828 0.0034757 -0.0458793 0.00119167zm25.0886 -1.50697l0 1.80737 0.780345 -0.46068 -0.547771 0.918976 -0.588884 0.863762 -0.627712 0.808449 -0.668328 0.753036 -0.699709 0.690275 -0.73248 0.634366 -0.759789 0.578357 -0.792063 0.515099 -0.815202 0.458793 -0.839929 0.395039 -0.862471 0.334859 -0.876076 0.277858 -0.894547 0.213607 -0.907457 0.149455 -0.918381 0.0917586 -0.923743 0.0272098 -0.933972 -0.0306855 -0.935262 -0.0957308 -0.938043 -0.154023 -0.935064 -0.219267 -0.937249 -0.277957 -0.926722 -0.343698 -0.92136 -0.402586 -0.910138 -0.461574 -0.900605 -0.524534 -0.88551 -0.587493 -0.868231 -0.650553 -0.849065 -0.70676 -0.83119 -0.770415 -0.807853 -0.833971 -0.786006 -0.890873 -0.758498 -0.954826 1.42067 -1.09872 0.70249 0.88412 0.723046 0.82692 0.744893 0.763265 0.761279 0.706462 0.778955 0.650155 0.791368 0.586798 0.801498 0.53069 0.809641 0.474881 0.819174 0.419071 0.823245 0.360083 0.828807 0.301195 0.825232 0.249556 0.830197 0.191064 0.826026 0.139723 0.823245 0.0816294 0.815003 0.0306855 0.811726 -0.0272098 0.799412 -0.0776572 0.788488 -0.135155 0.775579 -0.185404 0.764059 -0.235355 0.743503 -0.292158 0.727912 -0.345584 0.710335 -0.39484 0.686998 -0.451345 0.668825 -0.500501 0.641516 -0.556311 0.615696 -0.612419 0.584316 -0.66088 0.557801 -0.716293 0.525924 -0.771606 0.491763 -0.826821 0.780345 -0.46068zm0.780345 1.34669l-1.56069 -0.886007 0.0235355 -0.0401196 0.0252237 -0.0384314 0.0268126 -0.0366439 0.0284015 -0.035055 0.0298911 -0.0332675 0.0312813 -0.0315793 0.0325723 -0.0296924 0.0338633 -0.0280042 0.0349557 -0.0261174 0.0361473 -0.0243299 0.0371404 -0.0223438 0.0380341 -0.0205563 0.0389279 -0.0186695 0.039623 -0.0166834 0.0404175 -0.0147966 0.0410133 -0.0127111 0.0416092 -0.0108243 0.0421057 -0.00873891 0.0424036 -0.0067528 0.0428008 -0.00466737 0.0430987 -0.00258195 0.043198 -0.000496529 0.0432974 0.0016882 0.0432974 0.00377362 0.0432974 0.00595835 0.0430987 0.00814308 0.0429994 0.0104271 0.0426022 0.0126118 0.0423043 0.0148959 0.0418078 0.0170806 0.0413112 0.0194639 0.0407154 0.021748 0.039623 0.0238334 0.0379348 0.0255216 0.0362466 0.0272098 0.0345584 0.0287987 0.0328702 0.030189 0.0310827 0.0316786 0.0293945 0.0329695 0.027607 0.0343598 0.0258195 0.0353529 0.0239327 0.0366439 0.0221452 0.0375376 0.0203577 0.0385307 0.0183716 0.0394244 0.0164848 0.0402189 0.014598 0.040914 0.0126118 0.0415098 0.0106257 0.0421057 0.00863961 0.0426022 0.00665349 0.0429994 0.00456807 0.0433967 0.00258195 0.0435953 0.000496529 0.0436946 -0.0016882 0.0438932 -0.00367432 0.0438932 -0.00595835 0.0437939 -0.00804377 0.0436946 -0.0102285 0.043496 -0.0124132 0.043198 -0.0146973 0.0428008 -0.016882 0.0423043 -0.0192653 0.0419071 -0.0214501 0.0412119zm56.1436 0.292654l-56.9239 0.168025 0 -1.80737 56.9239 -0.168025 0 1.80737zm0 0l0 -1.80737 0.0458793 0.00119167 0.0453828 0.0034757 0.0445883 0.00575974 0.0439925 0.00794447 0.0430987 0.0101292 0.0424036 0.0121153 0.0414105 0.0142007 0.0405168 0.0161869 0.0395237 0.0180737 0.0385307 0.0199605 0.037339 0.0218473 0.0362466 0.0234362 0.0349557 0.0252237 0.033764 0.0268126 0.0323737 0.0284015 0.0309834 0.0299904 0.0294938 0.0313806 0.0281036 0.0327709 0.0265147 0.0341612 0.0248265 0.0353529 0.0232376 0.0367432 0.0214501 0.0378355 0.0197619 0.0389279 0.0178751 0.0400203 0.0159882 0.0410133 0.0140021 0.0420064 0.012016 0.0429001 0.00993059 0.0436946 0.00784516 0.044489 0.00575974 0.0452835 0.0033764 0.0458793 0.00119167 0.0464751 -0.00119167 0.0464751 -0.0033764 0.0458793 -0.00575974 0.0452835 -0.00784516 0.044489 -0.00993059 0.0436946 -0.012016 0.0429001 -0.0140021 0.0420064 -0.0159882 0.0410133 -0.0178751 0.0400203 -0.0197619 0.0389279 -0.0214501 0.0378355 -0.0232376 0.0367432 -0.0248265 0.0353529 -0.0265147 0.0341612 -0.0281036 0.0327709 -0.0294938 0.0313806 -0.0309834 0.0299904 -0.0323737 0.0284015 -0.033764 0.0268126 -0.0349557 0.0252237 -0.0362466 0.0234362 -0.037339 0.0218473 -0.0385307 0.0199605 -0.0395237 0.0180737 -0.0405168 0.0161869 -0.0414105 0.0142007 -0.0424036 0.0121153 -0.0430987 0.0101292 -0.0439925 0.00794447 -0.0445883 0.00575974 -0.0453828 0.0034757 -0.0458793 0.00119167z"/>
    </g>
   </g>
   <g>
    <g>
     <path class="fil3" d="M1.24152 114.475l33.7609 0.386002 33.461 0.0598814c10.2543,11.4424 21.2757,13.096 32.1334,0.327511l61.4803 -0.257798 -29.0717 45.3682 -38.4136 0c-2.74491,7.5684 -14.802,13.8166 -19.9494,-0.085403l-42.4525 -0.172395 -30.9485 -45.626z"/>
     <path id="1" class="fil4" d="M35.0024 116.152l-0.00973197 0 -33.7609 -0.386002 0.0194639 -2.58374 33.7609 0.386002 -0.00973197 2.58374zm-0.00973197 0l0.0194639 -2.58374 0.0637544 0.00218473 0.0628606 0.00556113 0.0619669 0.00863961 0.0609738 0.0119167 0.0597821 0.0148959 0.0586898 0.0178751 0.0573988 0.0207549 0.0561078 0.0236348 0.0547175 0.0263161 0.0532279 0.0289973 0.051639 0.03148 0.0500501 0.0340619 0.0482626 0.0364452 0.0465744 0.0387293 0.0445883 0.040914 0.0427015 0.043198 0.0407154 0.0451842 0.03863 0.0471703 0.0364452 0.0490571 0.0341612 0.0509439 0.0317779 0.0527314 0.0294938 0.0543203 0.0269119 0.0559092 0.0243299 0.0574981 0.021748 0.0587891 0.0190667 0.0601793 0.0162862 0.0614703 0.013307 0.0625627 0.0104271 0.0637544 0.00744794 0.0646481 0.00427015 0.0656412 0.00109236 0.0665349 -0.00208542 0.0664356 -0.00526321 0.0655419 -0.008441 0.0646481 -0.0113209 0.0634564 -0.0143 0.0624634 -0.0171799 0.0611724 -0.0199605 0.0597821 -0.0226417 0.0584911 -0.0252237 0.0571009 -0.0278056 0.0554127 -0.030189 0.0538238 -0.0326716 0.0522349 -0.0349557 0.0503481 -0.0371404 0.0484613 -0.0393251 0.0465744 -0.0413112 0.0445883 -0.0433967 0.0424036 -0.0452835 0.0402189 -0.047071 0.0379348 -0.0488585 0.0356508 -0.0505467 0.0331682 -0.0521356 0.0306855 -0.0536252 0.0281036 -0.0550154 0.0254223 -0.056505 0.0226417 -0.0576967 0.0198612 -0.0589877 0.0169813 -0.0599807 0.0139028 -0.0611724 0.0109236 -0.0620662 0.00764655 -0.0629599 0.00446876 -0.0637544 0.00119167zm34.3794 -2.11343l-0.908649 2.17331 -33.461 -0.0598814 0 -2.58374 33.461 0.0598814 0.908649 0.410431zm-0.908649 2.17331l0 -2.58374 0.0637544 0.0016882 0.0629599 0.00496529 0.0619669 0.00824239 0.0610731 0.0113209 0.0598814 0.0144987 0.0587891 0.0173785 0.0575974 0.0202584 0.0563064 0.0231383 0.0549161 0.0259188 0.0534265 0.0285008 0.0518377 0.031182 0.0502488 0.0335654 0.0486599 0.036048 0.0467731 0.0383321 0.0449856 0.0406161 0.0429994 0.0428008 0.0410133 0.0447869 0.0389279 0.0468724 0.0368425 0.0488585 0.0345584 0.050646 0.0321751 0.0524335 0.0298911 0.0540224 0.0273091 0.0557106 0.0248265 0.0572995 0.0222445 0.0585905 0.0194639 0.06008 0.0166834 0.0612717 0.0138035 0.0624634 0.0109236 0.063655 0.00794447 0.0646481 0.00476668 0.0656412 0.00158889 0.0664356 -0.00158889 0.0664356 -0.00476668 0.0656412 -0.00794447 0.0646481 -0.0109236 0.063655 -0.0138035 0.0624634 -0.0166834 0.0612717 -0.0194639 0.06008 -0.0222445 0.0585905 -0.0248265 0.0572995 -0.0273091 0.0557106 -0.0298911 0.0540224 -0.0321751 0.0524335 -0.0345584 0.050646 -0.0368425 0.0488585 -0.0389279 0.0468724 -0.0410133 0.0448862 -0.0429994 0.0427015 -0.0449856 0.0406161 -0.0467731 0.0383321 -0.0486599 0.036048 -0.0502488 0.0335654 -0.0518377 0.031182 -0.0534265 0.0285008 -0.0549161 0.0259188 -0.0563064 0.0231383 -0.0575974 0.0202584 -0.0587891 0.0173785 -0.0598814 0.0144987 -0.0610731 0.0113209 -0.0619669 0.00824239 -0.0629599 0.00496529 -0.0637544 0.0016882zm32.1285 -2.25623l0.00973197 2.58374 0.923246 -0.435754 -1.04748 1.19038 -1.05324 1.10686 -1.0585 1.02891 -1.06406 0.942015 -1.06416 0.860882 -1.07409 0.785609 -1.07886 0.701199 -1.07866 0.622548 -1.0879 0.544991 -1.0873 0.4578 -1.09634 0.386995 -1.09544 0.301592 -1.09922 0.222246 -1.09793 0.143894 -1.09644 0.0659391 -1.09485 -0.0108243 -1.09316 -0.0867933 -1.08641 -0.162067 -1.08422 -0.241313 -1.07707 -0.309735 -1.06982 -0.382328 -1.06227 -0.448962 -1.05949 -0.519965 -1.04688 -0.584812 -1.03884 -0.649063 -1.03546 -0.712321 -1.02245 -0.774784 -1.01868 -0.841518 -1.01004 -0.897129 -1.0012 -0.951946 -0.997031 -1.0162 -0.992661 -1.07429 1.8173 -1.76288 0.934468 1.01352 0.938639 0.955223 0.943008 0.9013 0.941916 0.836354 0.941022 0.770613 0.944597 0.714009 0.938341 0.651546 0.941717 0.588288 0.939831 0.524037 0.933177 0.45919 0.935958 0.398316 0.933773 0.331682 0.93129 0.269218 0.928708 0.200796 0.930893 0.14161 0.927914 0.0766641 0.929602 0.0108243 0.93139 -0.0558099 0.932681 -0.123437 0.933972 -0.191859 0.93993 -0.261075 0.940824 -0.32622 0.951251 -0.407154 0.951847 -0.474086 0.962075 -0.551644 0.962075 -0.630294 0.967239 -0.704575 0.976772 -0.789978 0.976474 -0.871111 0.980844 -0.947874 0.985114 -1.03576 0.989285 -1.11947 0.923246 -0.435754zm0.932978 2.14799l-1.85622 -1.71223 0.043496 -0.0486599 0.0452835 -0.0458793 0.0469717 -0.0429001 0.0485606 -0.0401196 0.0501495 -0.037339 0.0514404 -0.0343598 0.0528307 -0.03148 0.0538238 -0.0286001 0.0550154 -0.0257202 0.0559092 -0.0228403 0.0567036 -0.0198612 0.0574981 -0.0169813 0.0580939 -0.0141014 0.0585905 -0.0111223 0.0589877 -0.00824239 0.0591863 -0.00526321 0.0594842 -0.00228403 0.0594842 0.000695141 0.0593849 0.00357501 0.0592856 0.00655419 0.059087 0.00963267 0.0585905 0.0125125 0.0581932 0.0154917 0.0574981 0.0185702 0.0569023 0.0215494 0.0560085 0.0246279 0.0551147 0.0275077 0.0541217 0.0306855 0.05293 0.0335654 0.051639 0.0367432 0.0502488 0.0397223 0.0488585 0.0428008 0.0466737 0.0452835 0.0439925 0.0472696 0.0412119 0.0489578 0.0384314 0.050646 0.0357501 0.0522349 0.0329695 0.0537245 0.030189 0.0549161 0.0275077 0.0562071 0.0246279 0.0572995 0.0218473 0.0582925 0.019166 0.0591863 0.0162862 0.0598814 0.0135056 0.0605766 0.0106257 0.0610731 0.00784516 0.0614703 0.0050646 0.0617682 0.00218473 0.0619669 -0.000595835 0.0619669 -0.0034757 0.0619669 -0.00635557 0.0618675 -0.00913614 0.0614703 -0.012016 0.0611724 -0.0149952 0.0606759 -0.0177757 0.0599807 -0.0206556 0.0592856 -0.0235355 0.0583918 -0.0265147 0.0574981 -0.0292952 0.0563064 -0.0322744 0.0552141 -0.0352536 0.0538238 -0.0381334 0.0524335 -0.0410133 0.0509439zm61.5823 -0.394542l-1.02533 0.572498 -61.4803 0.257798 -0.00973197 -2.58374 61.4803 -0.257798 1.03506 2.01124zm-1.02533 0.572498l-0.00973197 -2.58374 0.0637544 0.00139028 0.0629599 0.00476668 0.0620662 0.00794447 0.0610731 0.0111223 0.0599807 0.0142007 0.0588884 0.0171799 0.0575974 0.0200598 0.0564057 0.0229397 0.0549161 0.0256209 0.0536252 0.0283022 0.051937 0.0308841 0.0504474 0.0333668 0.0486599 0.0358494 0.0469717 0.0381334 0.0451842 0.0405168 0.043198 0.0426022 0.0411126 0.0446876 0.0391265 0.0466737 0.0370411 0.0486599 0.0346577 0.0505467 0.032473 0.0522349 0.0300897 0.0540224 0.0275077 0.055512 0.0250251 0.0572002 0.0224431 0.0584911 0.0196626 0.0599807 0.0169813 0.0612717 0.0141014 0.0623641 0.0111223 0.063655 0.00814308 0.0645488 0.00496529 0.0656412 0.00188681 0.0664356 -0.00139028 0.0664356 -0.00446876 0.0656412 -0.00764655 0.0647474 -0.010725 0.063655 -0.0136049 0.0625627 -0.0163855 0.061371 -0.0192653 0.06008 -0.0220459 0.0586898 -0.0245285 0.0573988 -0.0272098 0.0558099 -0.0295931 0.054221 -0.0320758 0.0525328 -0.0343598 0.0507453 -0.0365446 0.0489578 -0.0388286 0.047071 -0.0408147 0.0450849 -0.0429001 0.0429001 -0.0447869 0.0408147 -0.0466737 0.0385307 -0.0484613 0.0362466 -0.0501495 0.033764 -0.0517383 0.0313806 -0.0533272 0.0286994 -0.0548168 0.0261174 -0.0562071 0.0233369 -0.0574981 0.0205563 -0.0586898 0.0176764 -0.0598814 0.014598 -0.0609738 0.0116188 -0.0620662 0.0085403 -0.0628606 0.0051639 -0.0637544 0.00198612zm-29.0766 45.3732l-1.0302 -2.01631 29.0717 -45.3682 2.0604 1.43874 -29.0717 45.3682 -1.0302 0.577563zm-1.0302 -2.01631l2.0604 1.43874 -0.0368425 0.0543203 -0.0390272 0.0517383 -0.0411126 0.0491564 -0.0429994 0.0465744 -0.0448862 0.0438932 -0.0465744 0.0413112 -0.0482626 0.03863 -0.0498515 0.0358494 -0.0511425 0.0331682 -0.0525328 0.0303876 -0.0537245 0.0277063 -0.0547175 0.0248265 -0.0558099 0.0220459 -0.0567036 0.0192653 -0.0573988 0.0162862 -0.0579946 0.0135056 -0.0586898 0.0106257 -0.059087 0.00764655 -0.0593849 0.00466737 -0.0595835 0.00178751 -0.0597821 -0.00129098 -0.0597821 -0.00427015 -0.0595835 -0.00724933 -0.0594842 -0.0104271 -0.0591863 -0.0134063 -0.0586898 -0.0164848 -0.0581932 -0.0196626 -0.0574981 -0.0228403 -0.0568029 -0.0260181 -0.0560085 -0.0290966 -0.0549161 -0.0323737 -0.0539231 -0.0356508 -0.0521356 -0.0384314 -0.0496529 -0.0406161 -0.0471703 -0.0429001 -0.0445883 -0.0447869 -0.042205 -0.0468724 -0.0395237 -0.0485606 -0.0370411 -0.0503481 -0.0344591 -0.0518377 -0.0317779 -0.0534265 -0.0291959 -0.0547175 -0.0265147 -0.0560085 -0.0238334 -0.0571009 -0.0211521 -0.0581932 -0.0184709 -0.0589877 -0.0156903 -0.0598814 -0.0129098 -0.0605766 -0.0101292 -0.0610731 -0.00734863 -0.0616689 -0.00456807 -0.0618675 -0.0016882 -0.0621655 0.00119167 -0.0623641 0.00407154 -0.0622648 0.00705072 -0.0621655 0.00993059 -0.0619669 0.0129098 -0.0616689 0.0157896 -0.0612717 0.0188681 -0.0605766 0.0219466 -0.0599807 0.0248265 -0.0592856 0.0280042 -0.0582925 0.0310827 -0.0572995 0.0341612 -0.0562071zm-38.5448 0.263458l1.16138 -0.841021 38.4136 0 0 2.59387 -38.4136 0 -1.16138 -1.75285zm1.16138 -0.841021l0 2.59387 -0.0640523 -0.0016882 -0.0631585 -0.00496529 -0.0622648 -0.00834169 -0.0611724 -0.0113209 -0.0602787 -0.0144987 -0.0589877 -0.0174778 -0.057796 -0.020457 -0.056505 -0.0231383 -0.0551147 -0.0260181 -0.0536252 -0.0286001 -0.0520363 -0.0312813 -0.0505467 -0.033764 -0.0487592 -0.0361473 -0.0469717 -0.0385307 -0.0451842 -0.0407154 -0.043198 -0.0429001 -0.0412119 -0.0450849 -0.0390272 -0.047071 -0.0369418 -0.0489578 -0.0346577 -0.0508446 -0.0323737 -0.0526321 -0.0299904 -0.0543203 -0.0275077 -0.0559092 -0.0248265 -0.0574981 -0.0223438 -0.0588884 -0.0195633 -0.0602787 -0.0167827 -0.0614703 -0.0138035 -0.0627613 -0.0110229 -0.0638537 -0.00784516 -0.064946 -0.00486599 -0.0658398 -0.00158889 -0.0667335 0.00158889 -0.0667335 0.00486599 -0.0658398 0.00784516 -0.064946 0.0110229 -0.0638537 0.0138035 -0.0627613 0.0167827 -0.0614703 0.0195633 -0.0602787 0.0223438 -0.0588884 0.0248265 -0.0574981 0.0275077 -0.0559092 0.0299904 -0.0543203 0.0323737 -0.0526321 0.0346577 -0.0508446 0.0369418 -0.0489578 0.0390272 -0.047071 0.0412119 -0.0449856 0.043198 -0.0429994 0.0451842 -0.0407154 0.0469717 -0.0385307 0.0487592 -0.0361473 0.0505467 -0.033764 0.0520363 -0.0312813 0.0536252 -0.0286001 0.0551147 -0.0260181 0.056505 -0.0231383 0.057796 -0.020457 0.0589877 -0.0174778 0.0602787 -0.0144987 0.0611724 -0.0113209 0.0622648 -0.00834169 0.0631585 -0.00496529 0.0640523 -0.0016882zm-19.9494 2.5034l0 -2.58374 1.15652 0.825827 0.473093 1.17399 0.505864 1.05413 0.525824 0.938043 0.552438 0.830296 0.56654 0.72096 0.587295 0.62513 0.595339 0.532875 0.600602 0.438932 0.617186 0.363658 0.616391 0.286795 0.627216 0.21321 0.634962 0.143298 0.639927 0.0817287 0.651347 0.0237341 0.650453 -0.0410133 0.651049 -0.0971211 0.65383 -0.155116 0.648666 -0.204371 0.640523 -0.26038 0.634366 -0.307848 0.620264 -0.35194 0.598318 -0.397621 0.583124 -0.434662 0.560284 -0.47359 0.529499 -0.503679 0.495735 -0.530492 0.463659 -0.558993 0.429001 -0.578953 0.3863 -0.590274 0.345386 -0.608348 0.296924 -0.617881 0.250052 -0.618973 2.32276 0.911826 -0.318176 0.79117 -0.374582 0.770018 -0.423242 0.750156 -0.473689 0.732083 -0.51639 0.700503 -0.560979 0.670414 -0.602588 0.642112 -0.636352 0.604971 -0.667137 0.564752 -0.699908 0.525824 -0.734367 0.478654 -0.756313 0.432974 -0.780147 0.378753 -0.805768 0.321155 -0.823444 0.265147 -0.838539 0.195633 -0.855222 0.127707 -0.86416 0.0511425 -0.865252 -0.0237341 -0.873097 -0.112315 -0.86833 -0.204074 -0.860386 -0.294243 -0.849562 -0.388087 -0.821359 -0.485208 -0.804576 -0.59087 -0.770315 -0.684813 -0.733076 -0.787396 -0.702589 -0.893157 -0.65949 -0.992363 -0.622946 -1.10011 -0.573789 -1.20627 -0.531485 -1.3158 1.15652 0.825827zm1.15652 -1.75791l-2.31303 0.932085 -0.0214501 -0.062662 -0.0182723 -0.0630592 -0.0149952 -0.0632578 -0.0119167 -0.0634564 -0.00863961 -0.0635557 -0.00566043 -0.0634564 -0.00258195 -0.0633571 0.000397223 -0.0631585 0.0033764 -0.062662 0.00625627 -0.0623641 0.00913614 -0.0616689 0.0119167 -0.0610731 0.0146973 -0.0602787 0.0174778 -0.0593849 0.0201591 -0.0583918 0.022741 -0.0572995 0.0254223 -0.0561078 0.0279049 -0.0548168 0.0303876 -0.0533272 0.0328702 -0.051937 0.0352536 -0.0502488 0.0377362 -0.0485606 0.039921 -0.0466737 0.0423043 -0.0447869 0.044489 -0.0428008 0.0467731 -0.0406161 0.0488585 -0.0383321 0.0509439 -0.036048 0.0530293 -0.0335654 0.0550154 -0.0309834 0.0570016 -0.0283022 0.0588884 -0.0255216 0.06008 -0.0224431 0.0604773 -0.0189674 0.0606759 -0.0156903 0.0608745 -0.0123139 0.0609738 -0.00903683 0.0608745 -0.00585905 0.0607752 -0.00278056 0.0605766 0.000496529 0.0601793 0.0034757 0.0596828 0.00655419 0.0591863 0.00953336 0.0585905 0.0124132 0.057796 0.0153924 0.0570016 0.018173 0.0560085 0.0209535 0.0549161 0.0237341 0.0538238 0.0264154 0.0526321 0.0290966 0.0512418 0.0317779 0.0497522 0.0342605 0.0481633 0.0367432 0.0465744 0.0393251 0.0448862 0.0416092 0.0429001 0.0440918 0.0410133 0.0464751 0.0390272 0.0486599 0.0367432 0.0509439 0.0345584 0.0531286 0.0321751 0.0552141 0.0297918 0.0573988 0.0271105 0.0593849 0.0245285 0.0614703zm-44.6246 1.03834l1.0156 -2.03656 42.4525 0.172395 0 2.58374 -42.4525 -0.172395 -1.0156 -0.547175zm1.0156 -2.03656l0 2.58374 -0.0637544 -0.0016882 -0.0629599 -0.00496529 -0.0619669 -0.00824239 -0.0610731 -0.0113209 -0.0598814 -0.0144987 -0.0587891 -0.0173785 -0.0575974 -0.0202584 -0.0563064 -0.0231383 -0.0549161 -0.0259188 -0.0534265 -0.0285008 -0.0518377 -0.031182 -0.0502488 -0.0335654 -0.0486599 -0.036048 -0.0467731 -0.0383321 -0.0449856 -0.0406161 -0.0429994 -0.0427015 -0.0410133 -0.0448862 -0.0389279 -0.0468724 -0.0368425 -0.0488585 -0.0345584 -0.050646 -0.0321751 -0.0524335 -0.0298911 -0.0540224 -0.0273091 -0.0557106 -0.0248265 -0.0572995 -0.0222445 -0.0585905 -0.0194639 -0.06008 -0.0166834 -0.0612717 -0.0138035 -0.0624634 -0.0109236 -0.063655 -0.00794447 -0.0646481 -0.00476668 -0.0656412 -0.00158889 -0.0664356 0.00158889 -0.0664356 0.00476668 -0.0656412 0.00794447 -0.0646481 0.0109236 -0.063655 0.0138035 -0.0624634 0.0166834 -0.0612717 0.0194639 -0.06008 0.0222445 -0.0585905 0.0248265 -0.0572995 0.0273091 -0.0557106 0.0298911 -0.0540224 0.0321751 -0.0524335 0.0345584 -0.050646 0.0368425 -0.0488585 0.0389279 -0.0468724 0.0410133 -0.0447869 0.0429994 -0.0428008 0.0449856 -0.0406161 0.0467731 -0.0383321 0.0486599 -0.036048 0.0502488 -0.0335654 0.0518377 -0.031182 0.0534265 -0.0285008 0.0549161 -0.0259188 0.0563064 -0.0231383 0.0575974 -0.0202584 0.0587891 -0.0173785 0.0598814 -0.0144987 0.0610731 -0.0113209 0.0619669 -0.00824239 0.0629599 -0.00496529 0.0637544 -0.0016882zm-30.9387 -45.626l1.00587 0.547175 30.9485 45.626 -2.0312 1.48939 -30.9485 -45.626 1.02533 -2.03656zm1.00587 0.547175l-2.0312 1.48939 -0.0354522 -0.0554127 -0.0323737 -0.0567036 -0.0291959 -0.0576967 -0.0263161 -0.0586898 -0.0231383 -0.0595835 -0.0202584 -0.0602787 -0.0171799 -0.0608745 -0.0143 -0.061371 -0.0113209 -0.0618675 -0.00834169 -0.0620662 -0.00546182 -0.0622648 -0.00258195 -0.0623641 0.000297918 -0.0622648 0.00317779 -0.0620662 0.00605766 -0.0618675 0.00873891 -0.0614703 0.0116188 -0.0608745 0.0143993 -0.0602787 0.0171799 -0.0595835 0.0199605 -0.0586898 0.0226417 -0.057796 0.025323 -0.0567036 0.0280042 -0.055512 0.0306855 -0.0541217 0.0332675 -0.0528307 0.0359487 -0.0512418 0.03863 -0.0495536 0.0411126 -0.0478654 0.0436946 -0.0459786 0.0463758 -0.0439925 0.0487592 -0.0419071 0.0513411 -0.0397223 0.0532279 -0.0369418 0.0543203 -0.033764 0.0553134 -0.0304869 0.0563064 -0.0274084 0.0571009 -0.0241313 0.0578953 -0.0210528 0.0583918 -0.0179744 0.0588884 -0.0148959 0.0592856 -0.0117181 0.0595835 -0.00873891 0.0596828 -0.00575974 0.0598814 -0.00258195 0.0596828 0.000297918 0.0595835 0.00327709 0.0592856 0.00625627 0.0588884 0.00923544 0.0584911 0.0121153 0.057796 0.0149952 0.0572002 0.0178751 0.0563064 0.0207549 0.0554127 0.0235355 0.0543203 0.0264154 0.0532279 0.0291959 0.0520363 0.0319765 0.0505467 0.034757 0.0491564 0.0375376 0.0476668 0.0402189 0.0458793 0.0429001 0.0440918 0.0455814 0.042205 0.0482626 0.0402189 0.0508446 0.0380341 0.0535259z"/>
    </g>
    <g>
     <path class="fil4" d="M68.0923 114.813l-2.23657 0.496926 -0.00973197 -0.0658398 -0.0067528 -0.0655419 -0.00387293 -0.0653432 -0.000893753 -0.0648467 0.00198612 -0.0643502 0.00466737 -0.0637544 0.00744794 -0.0630592 0.0101292 -0.0621655 0.0127111 -0.061371 0.0152931 -0.060378 0.0177757 -0.0592856 0.0202584 -0.0580939 0.0226417 -0.0569023 0.0249258 -0.0554127 0.0272098 -0.0540224 0.0293945 -0.0524335 0.0316786 -0.0507453 0.0336647 -0.0490571 0.0357501 -0.0471703 0.0378355 -0.0451842 0.039623 -0.043198 0.0416092 -0.0411126 0.0433967 -0.0388286 0.0451842 -0.0364452 0.0468724 -0.0340619 0.0484613 -0.0315793 0.0501495 -0.028898 0.051639 -0.0263161 0.0531286 -0.0233369 0.0546182 -0.0205563 0.0559092 -0.0175771 0.0572995 -0.0143993 0.057796 -0.0111223 0.0576967 -0.00774586 0.0572995 -0.00427015 0.0570016 -0.00109236 0.056505 0.00228403 0.0560085 0.00536252 0.0554127 0.008441 0.0547175 0.0115195 0.0539231 0.0144987 0.0530293 0.0173785 0.0521356 0.0202584 0.0510432 0.023039 0.0498515 0.0257202 0.0487592 0.0284015 0.0474682 0.0309834 0.0460779 0.0334661 0.0445883 0.036048 0.0430987 0.0383321 0.0414105 0.0407154 0.0397223 0.0429994 0.0379348 0.0451842 0.0361473 0.0472696 0.0340619 0.049355 0.0320758 0.0514404 0.0298911 0.0533272 0.0277063 0.0552141 0.0254223 0.0571009 0.023039 0.0587891 0.0206556 0.0604773 0.0179744 0.0621655 0.0153924 0.063655 0.0127111 0.0651446zm5.7797 46.3554l-0.0757704 -0.273886 -7.9405 -45.5846 2.23657 -0.496926 7.9405 45.5846 -2.1608 0.770812zm-0.0757704 -0.273886l2.23657 -0.496926 0.00973197 0.0658398 0.0067528 0.0655419 0.00387293 0.0653432 0.000893753 0.0648467 -0.00198612 0.0643502 -0.00466737 0.0637544 -0.00744794 0.0630592 -0.0101292 0.0621655 -0.0127111 0.061371 -0.0152931 0.060378 -0.0177757 0.0592856 -0.0202584 0.0580939 -0.0226417 0.0569023 -0.0249258 0.0554127 -0.0272098 0.0540224 -0.0294938 0.0524335 -0.0315793 0.0507453 -0.0336647 0.0490571 -0.0357501 0.0471703 -0.0378355 0.0451842 -0.039623 0.043198 -0.0416092 0.0411126 -0.0433967 0.0388286 -0.0451842 0.0364452 -0.0468724 0.0340619 -0.0484613 0.0315793 -0.0501495 0.028898 -0.051639 0.0263161 -0.0531286 0.0233369 -0.0546182 0.0205563 -0.0559092 0.0175771 -0.0572995 0.0143993 -0.057796 0.0111223 -0.0576967 0.00774586 -0.0572995 0.00427015 -0.0570016 0.00109236 -0.056505 -0.00228403 -0.0560085 -0.00536252 -0.0554127 -0.008441 -0.0547175 -0.0115195 -0.0539231 -0.0144987 -0.0530293 -0.0173785 -0.0521356 -0.0202584 -0.0510432 -0.023039 -0.0498515 -0.0257202 -0.0487592 -0.0284015 -0.0474682 -0.0309834 -0.0460779 -0.0334661 -0.0445883 -0.036048 -0.0430987 -0.0383321 -0.0414105 -0.0407154 -0.0397223 -0.0429994 -0.0379348 -0.0451842 -0.0361473 -0.0472696 -0.0340619 -0.049355 -0.0320758 -0.0514404 -0.0298911 -0.0533272 -0.0277063 -0.0552141 -0.0254223 -0.0571009 -0.023039 -0.0587891 -0.0206556 -0.0604773 -0.0179744 -0.0621655 -0.0153924 -0.063655 -0.0127111 -0.0651446zm10.2937 6.60086l0 2.58632 0 0 -0.381136 -0.00715002 -0.388286 -0.0229397 -0.386598 -0.0438932 -0.380143 -0.0648467 -0.378057 -0.0809343 -0.380143 -0.0966246 -0.372993 -0.117578 -0.370411 -0.133566 -0.367332 -0.15452 -0.364353 -0.170508 -0.360977 -0.186397 -0.352933 -0.20745 -0.344989 -0.223537 -0.345485 -0.239327 -0.336945 -0.260479 -0.332675 -0.271403 -0.323737 -0.292456 -0.323638 -0.308444 -0.309834 -0.324532 -0.309338 -0.345584 -0.299506 -0.356607 -0.294243 -0.37766 -0.284213 -0.388782 -0.278354 -0.404771 -0.272396 -0.425823 -0.26187 -0.437045 -0.255415 -0.458098 -0.24896 -0.46922 -0.237639 -0.485308 -0.235355 -0.50646 -0.223637 -0.517681 -0.216387 -0.53367 2.08503 -1.0447 0.189575 0.472894 0.197023 0.456708 0.199605 0.435555 0.211025 0.424533 0.21321 0.408246 0.219863 0.387194 0.226119 0.376071 0.227907 0.354919 0.233865 0.343995 0.239526 0.327809 0.240817 0.306756 0.24608 0.295634 0.246974 0.27468 0.256408 0.263558 0.252336 0.247669 0.261373 0.231681 0.261373 0.220558 0.265643 0.199704 0.265246 0.188681 0.273687 0.172693 0.272892 0.156804 0.2718 0.14588 0.275177 0.129793 0.278354 0.114003 0.281234 0.103179 0.284015 0.0871905 0.282029 0.0763662 0.288881 0.0604773 0.291165 0.0445883 0.288483 0.033764 0.29037 0.0229397 0.300897 0.00715002 0 0zm0 2.58632l0 -2.58632 0.0584911 0.0016882 0.0576967 0.00496529 0.0568029 0.00824239 0.0560085 0.0114202 0.0549161 0.0143993 0.0539231 0.0174778 0.0527314 0.0202584 0.051639 0.0231383 0.0503481 0.0259188 0.0489578 0.0286001 0.0475675 0.0310827 0.0460779 0.0336647 0.0445883 0.036048 0.0429001 0.0384314 0.0412119 0.0406161 0.0394244 0.0428008 0.0376369 0.0449856 0.0357501 0.0468724 0.0336647 0.0488585 0.0316786 0.0507453 0.0295931 0.0524335 0.0273091 0.0541217 0.0251244 0.0558099 0.022741 0.0572995 0.0203577 0.0586898 0.0178751 0.06008 0.0152931 0.061371 0.0127111 0.0625627 0.00993059 0.063655 0.00724933 0.0647474 0.00436946 0.0656412 0.00148959 0.0665349 -0.00148959 0.0665349 -0.00436946 0.0656412 -0.00724933 0.0647474 -0.00993059 0.063655 -0.0127111 0.0625627 -0.0152931 0.061371 -0.0178751 0.06008 -0.0203577 0.0586898 -0.022741 0.0572995 -0.0251244 0.0558099 -0.0273091 0.0541217 -0.0295931 0.0524335 -0.0316786 0.0507453 -0.0336647 0.0488585 -0.0357501 0.0468724 -0.0376369 0.0449856 -0.0394244 0.0428008 -0.0412119 0.0406161 -0.0429001 0.0384314 -0.0445883 0.036048 -0.0460779 0.0336647 -0.0475675 0.0310827 -0.0489578 0.0286001 -0.0503481 0.0259188 -0.051639 0.0231383 -0.0527314 0.0202584 -0.0539231 0.0174778 -0.0549161 0.0143993 -0.0560085 0.0114202 -0.0568029 0.00824239 -0.0576967 0.00496529 -0.0584911 0.0016882zm9.34547 -10.1815l2.2455 0.44628 -0.0356508 0.157201 -0.170012 0.575875 -0.195732 0.556709 -0.21599 0.542508 -0.239923 0.523143 -0.258195 0.503679 -0.279943 0.488982 -0.291761 0.474384 -0.311522 0.449359 -0.325922 0.439329 -0.339129 0.414105 -0.351443 0.398812 -0.362764 0.38342 -0.377561 0.362665 -0.382328 0.346975 -0.39057 0.32622 -0.402288 0.310033 -0.404175 0.293945 -0.413807 0.272793 -0.413708 0.261274 -0.421355 0.23466 -0.41917 0.223041 -0.42493 0.201194 -0.425128 0.184212 -0.428803 0.167032 -0.422546 0.149853 -0.424235 0.127409 -0.415992 0.109832 -0.420262 0.0923544 -0.414403 0.0694148 -0.407551 0.0514404 -0.404274 0.0332675 -0.399905 0.0101292 0 -2.58632 0.293052 -0.0101292 0.30616 -0.0231383 0.318573 -0.0413112 0.325227 -0.0592856 0.331086 -0.0718974 0.344691 -0.0895739 0.344194 -0.107151 0.351245 -0.119465 0.348564 -0.136645 0.353827 -0.153825 0.353628 -0.170607 0.356806 -0.182524 0.350053 -0.204272 0.351344 -0.210628 0.342506 -0.232078 0.341811 -0.243299 0.330986 -0.259387 0.328206 -0.275375 0.319963 -0.286199 0.306259 -0.30189 0.3004 -0.312317 0.289079 -0.327908 0.276765 -0.343002 0.263558 -0.348166 0.249158 -0.368127 0.238334 -0.372893 0.217579 -0.38769 0.204769 -0.402189 0.186298 -0.411523 0.171501 -0.420957 0.151243 -0.43496 0.134262 -0.443996 -0.0356508 0.157201zm2.20985 0.603482l-2.1742 -0.760683 0.0185702 -0.0631585 0.0212515 -0.061371 0.0236348 -0.0594842 0.0259188 -0.0575974 0.0284015 -0.0556113 0.0304869 -0.0536252 0.0325723 -0.0515397 0.0346577 -0.049355 0.0365446 -0.0471703 0.0384314 -0.0449856 0.0402189 -0.0426022 0.0418078 -0.0403182 0.0433967 -0.0379348 0.0448862 -0.0354522 0.0463758 -0.0329695 0.0475675 -0.0302883 0.0488585 -0.0278056 0.0499508 -0.0251244 0.0509439 -0.0223438 0.051937 -0.0195633 0.0528307 -0.0167827 0.0535259 -0.0139028 0.054221 -0.0109236 0.0549161 -0.00784516 0.0553134 -0.00496529 0.0558099 -0.00178751 0.0560085 0.00139028 0.0564057 0.00456807 0.0564057 0.00784516 0.056505 0.0112216 0.056505 0.0144987 0.0564057 0.0179744 0.055512 0.0211521 0.0539231 0.0241313 0.0522349 0.0269119 0.050646 0.0295931 0.0488585 0.0321751 0.047071 0.034757 0.0451842 0.0371404 0.0433967 0.0394244 0.0415098 0.0416092 0.0394244 0.0436946 0.0375376 0.04578 0.0353529 0.0475675 0.0333668 0.0494543 0.0310827 0.0511425 0.0289973 0.0526321 0.0267133 0.054221 0.0243299 0.055512 0.0220459 0.0569023 0.0196626 0.0579946 0.0171799 0.0591863 0.0147966 0.06008 0.0121153 0.0609738 0.00963267 0.0617682 0.00695141 0.0623641 0.00427015 0.0630592 0.00158889 0.0634564 -0.00119167 0.0638537 -0.00397223 0.0640523 -0.00695141 0.0642509 -0.00983128 0.0643502 -0.0127111 0.0643502 -0.0157896 0.0641516zm6.89868 -44.5255l-6.86303 44.3683 -2.2455 -0.44628 6.86303 -44.3683 2.2455 0.44628zm0 0l-2.2455 -0.44628 0.0115195 -0.0654426 0.0143 -0.0640523 0.0169813 -0.0625627 0.0194639 -0.0609738 0.0220459 -0.0592856 0.0244292 -0.0576967 0.0268126 -0.0558099 0.0289973 -0.0540224 0.031182 -0.0521356 0.0331682 -0.0502488 0.0352536 -0.048064 0.0372397 -0.0460779 0.0389279 -0.0438932 0.0407154 -0.0416092 0.0424036 -0.0394244 0.0439925 -0.0369418 0.0454821 -0.0345584 0.0469717 -0.0320758 0.0481633 -0.0294938 0.0495536 -0.0269119 0.050646 -0.0242306 0.0517383 -0.0213508 0.0527314 -0.0186695 0.0536252 -0.0156903 0.0545189 -0.0127111 0.0552141 -0.00973197 0.0559092 -0.00665349 0.056505 -0.0034757 0.0570016 -0.000297918 0.0574981 0.00307848 0.057796 0.00635557 0.0579946 0.00983128 0.0574981 0.0131084 0.0563064 0.0162862 0.0549161 0.0192653 0.0535259 0.0222445 0.0521356 0.0250251 0.050646 0.0278056 0.0491564 0.0304869 0.0474682 0.0330688 0.04578 0.0354522 0.0440918 0.0378355 0.0423043 0.0401196 0.0404175 0.0423043 0.0385307 0.0443897 0.0366439 0.0463758 0.0345584 0.0482626 0.032473 0.0500501 0.0303876 0.0517383 0.0282029 0.0534265 0.0259188 0.0549161 0.0236348 0.0563064 0.0212515 0.0576967 0.0187688 0.0588884 0.0163855 0.0599807 0.0138035 0.0610731 0.0112216 0.0620662 0.0085403 0.0628606 0.00575974 0.063655 0.00307848 0.0643502 0.000198612 0.0648467 -0.00268126 0.0654426 -0.00556113 0.0657405 -0.00863961 0.0660384z"/>
    </g>
   </g>
   <g>
    <path class="fil4 str3" d="M53.2769 123.285c0.419071,1.86079 0.838936,3.70689 1.25354,5.5504 0.413807,1.83905 0.828509,3.67044 1.24063,5.49648 -0.298513,-0.0112216 -0.593452,-0.0216487 -0.889284,-0.0329695 -1.32464,-2.89139 -3.08394,-5.16083 -5.29956,-6.79431 -2.22783,-1.64311 -4.55268,-2.53657 -6.95747,-2.65891 -2.02127,-0.103278 -3.75287,0.389478 -5.18337,1.48601 -1.43398,1.09912 -2.32237,2.58781 -2.65981,4.4642 -0.429398,2.39436 -0.298414,5.08456 0.419071,8.04536 0.703483,2.9035 1.71243,5.54772 3.02237,7.92381 1.3021,2.36308 2.86716,4.14493 4.70104,5.35259 1.81829,1.19882 3.93331,1.79654 6.34674,1.80439 1.96576,0.00695141 3.65565,-0.412914 5.07661,-1.26228 1.40885,-0.841418 2.76567,-2.29883 4.06171,-4.36966 0.203875,0.893554 0.404274,1.78274 0.604673,2.67282 -1.29435,1.79575 -2.78126,3.10053 -4.45297,3.9056 -1.69247,0.814507 -3.79189,1.21451 -6.33542,1.21451 -1.67598,0 -3.31125,-0.166635 -4.89886,-0.503183 -1.59356,-0.337441 -3.1473,-0.843206 -4.65248,-1.52772 -3.03012,-1.38015 -5.62488,-3.36855 -7.75112,-5.97454 -2.1454,-2.63031 -3.6045,-5.44017 -4.34195,-8.40793 -0.392059,-1.57708 -0.558695,-3.10996 -0.505765,-4.5917 0.0547175,-1.48343 0.327908,-2.92615 0.824139,-4.31673 0.992463,-2.77689 2.72664,-4.87979 5.1938,-6.30682 1.22583,-0.707852 2.54531,-1.22494 3.94284,-1.53378 1.38631,-0.30616 2.86974,-0.421553 4.42864,-0.336548 2.27808,0.124033 4.79041,0.753831 7.51616,1.87638 1.56585,0.645488 2.54094,0.984618 2.93131,1.00378 0.486599,0.0242306 0.870118,-0.144887 1.14947,-0.498019 0.278454,-0.35045 0.384214,-0.927318 0.314899,-1.72981 0.299209,0.0164848 0.597722,0.0329695 0.900406,0.0485606z"/>
    <path class="fil4 str3" d="M118.825 143.508c-0.51788,1.45652 -1.01669,2.86885 -1.5025,4.23688 -0.470213,1.32732 -0.928212,2.62257 -1.37151,3.87611 -0.505765,1.42534 -0.716591,2.29972 -0.64807,2.65196 0.0677266,0.349557 0.30189,0.631486 0.714009,0.838042 0.414701,0.207251 1.26655,0.311423 2.57907,0.310529 -0.0901697,0.22036 -0.179545,0.443301 -0.267133,0.660185 -2.42564,0.000893753 -4.83471,0 -7.23334,0 -2.38304,0 -4.75308,0 -7.10921,0 0.0502488,-0.21599 0.100597,-0.432874 0.150051,-0.649758 1.29773,-0.000893753 2.20082,-0.108442 2.72654,-0.323638 0.517086,-0.213408 0.923048,-0.480541 1.21103,-0.828409 0.281929,-0.341811 0.6151,-1.20935 1.00805,-2.62594 0.822451,-2.96696 1.70468,-6.14544 2.6468,-9.54349 1.01411,-3.66002 2.10806,-7.59769 3.2905,-11.8554 0.626322,-2.2599 0.916096,-3.72427 0.831885,-4.3349 -0.0832183,-0.616888 -0.409438,-1.08968 -0.959394,-1.44619 -0.543997,-0.353926 -1.70816,-0.503183 -3.47789,-0.43635 0.0963267,-0.420759 0.19176,-0.843206 0.288881,-1.26655 2.8463,-0.109336 5.71863,-0.219466 8.5979,-0.330589 2.90698,-0.111024 5.8366,-0.223736 8.77745,-0.336548 2.92009,-0.111024 5.31962,0.0989086 7.16482,0.630691 1.83736,0.528307 3.11612,1.36367 3.82218,2.49585 1.3733,2.2034 1.20935,4.91703 -0.399905,8.04348 -1.29515,2.51234 -3.07878,4.58485 -5.34732,6.26262 -2.17827,1.61183 -4.58912,2.69188 -7.22897,3.28871 -0.884815,0.200399 -2.01958,0.363459 -3.40232,0.475377 -1.37072,0.111918 -2.99814,0.180439 -4.86162,0.207351zm6.61049 -18.6202c-1.13129,3.176 -2.19833,6.18278 -3.20897,9.03256 -0.961181,2.70747 -1.87291,5.27533 -2.74134,7.72163 0.53357,0.0252237 0.936951,0.0364452 1.22236,0.0321751 2.01353,-0.0294938 3.81096,-0.660185 5.42627,-1.89555 1.65523,-1.26744 3.09785,-3.28871 4.32199,-6.13154 1.28124,-2.97908 1.62832,-5.23719 0.989781,-6.6946 -0.654128,-1.48859 -2.26596,-2.19823 -4.8216,-2.10975 -0.398216,0.0138035 -0.793752,0.0294938 -1.18849,0.0450849z"/>
   </g>
  </g>
 </g>
</svg>
